<?xml version="1.0" encoding="UTF-8"?>
<svg id="PermitPro_Normal" data-name="PermitPro Normal" xmlns="http://www.w3.org/2000/svg" version="1.1" viewBox="0 0 340.16 198.43">
  <defs>
    <style>
      .cls-1 {
        fill: #00b9b5;
      }

      .cls-1, .cls-2 {
        stroke-width: 0px;
      }

      .cls-2 {
        fill: #088587;
      }
    </style>
  </defs>
  <g>
    <polygon class="cls-1" points="166.43 60.07 143 54.06 168.79 87.8 166.43 60.07"/>
    <polygon class="cls-1" points="148.2 29.71 146.97 35.47 190.2 42.68 188.13 87.8 194.22 87.8 206.6 29.71 148.2 29.71"/>
    <polygon class="cls-2" points="175.43 87.8 181.73 87.8 183.56 48.06 145.63 41.72 144.35 47.77 172.57 55.29 175.43 87.8"/>
    <polygon class="cls-2" points="161.05 87.8 141.27 62.2 132.97 100.58 158.16 100.58 161.05 87.8"/>
  </g>
  <g>
    <path class="cls-2" d="M61.23,122.14c6.6,0,9.14,3.05,9.14,7.98v14c0,5.01-2.54,8.05-9.14,8.05h-8.71v16.11h-10.3v-46.14h19.01ZM60,131.57c0-1.31-.51-1.81-1.89-1.81h-5.59v14.8h5.59c1.38,0,1.89-.51,1.89-1.81v-11.17Z"/>
    <path class="cls-2" d="M91.92,132.37c6.6,0,9.21,3.05,9.21,8.05v12.7h-16.9v6.17c0,1.31.51,1.74,1.96,1.74h3.26c1.38,0,1.89-.51,1.89-1.89v-2.39h9.72v3.48c0,5.01-2.61,8.05-9.22,8.05h-8.13c-6.6,0-9.14-3.05-9.14-8.05v-19.81c0-5.01,2.54-8.05,9.14-8.05h8.2ZM91.41,147.17v-5.8c0-1.31-.51-1.74-1.89-1.74h-3.34c-1.45,0-1.96.44-1.96,1.74v5.8h7.18Z"/>
    <path class="cls-2" d="M124.41,132.15v8.78h-3.56c-3.05,0-4.57,1.74-4.57,5.08v22.27h-10.08v-35.91h9.94v5.15c.73-3.12,3.19-5.37,7.04-5.37h1.23Z"/>
    <path class="cls-2" d="M161.27,132.37c6.02,0,8.49,3.05,8.49,8.05v27.86h-10.08v-26.48c0-1.31-.58-1.81-1.96-1.81h-1.74c-1.45,0-2.11.65-2.11,2.32v25.97h-10.16v-26.48c0-1.31-.51-1.81-1.96-1.81h-1.74c-1.38,0-2.1.65-2.1,2.32v25.97h-10.08v-35.91h9.94v4.06c.65-2.61,2.61-4.06,5.8-4.06h1.82c4.13,0,6.6,1.45,7.76,4.06.72-2.54,3.12-4.06,6.39-4.06h1.74Z"/>
    <path class="cls-2" d="M175.27,119.74h10.52v7.84h-10.52v-7.84ZM175.48,168.28v-35.91h10.08v35.91h-10.08Z"/>
    <path class="cls-2" d="M202.83,139.98v18.79c0,1.31.58,1.74,1.96,1.74h2.76v7.76h-5.66c-6.53,0-9.14-3.05-9.14-8.05v-20.24h-3.77v-7.62h3.77v-6.67h10.08v6.67h4.72v7.62h-4.72Z"/>
    <path class="cls-1" d="M236.35,122.14c6.6,0,9.14,3.05,9.14,7.98v14c0,5.01-2.54,8.05-9.14,8.05h-8.71v16.11h-10.3v-46.14h19.01ZM235.11,131.57c0-1.31-.51-1.81-1.89-1.81h-5.59v14.8h5.59c1.38,0,1.89-.51,1.89-1.81v-11.17Z"/>
    <path class="cls-1" d="M268.41,132.15v8.78h-3.56c-3.05,0-4.57,1.74-4.57,5.08v22.27h-10.08v-35.91h9.94v5.15c.73-3.12,3.19-5.37,7.04-5.37h1.23Z"/>
    <path class="cls-1" d="M289.01,132.37c6.6,0,8.92,3.05,8.92,8.05v19.81c0,5.01-2.32,8.05-8.92,8.05h-8.64c-6.6,0-8.92-3.05-8.92-8.05v-19.81c0-5.01,2.32-8.05,8.92-8.05h8.64ZM288,141.44c0-1.31-.51-1.81-1.96-1.81h-2.68c-1.45,0-1.96.51-1.96,1.81v17.77c0,1.31.51,1.81,1.96,1.81h2.68c1.45,0,1.96-.51,1.96-1.81v-17.77Z"/>
  </g>
</svg>