<?xml version="1.0" encoding="utf-8"?>
<!-- Generator: Adobe Illustrator 27.0.0, SVG Export Plug-In . SVG Version: 6.00 Build 0)  -->
<svg version="1.1" id="Layer_1" xmlns="http://www.w3.org/2000/svg" xmlns:xlink="http://www.w3.org/1999/xlink" x="0px" y="0px"
	 viewBox="0 0 51 95" style="enable-background:new 0 0 51 95;" xml:space="preserve">
<style type="text/css">
	.st0{fill:#FFFFFF;}
	.st1{fill:#274964;}
</style>
<path class="st0" d="M27.8,37.8c-1.3,0-2.6,0-3.8,0c-0.3,0-0.7-0.5-0.8-0.7c-0.1-1.3,0-2.5,0-4c1.3,0,2.5-0.1,3.7,0
	c0.3,0,0.8,0.6,0.9,0.9C27.9,35.2,27.8,36.4,27.8,37.8z"/>
<g>
	<path class="st1" d="M10.5,22.8c0-6.1,0-12.2,0-18.3c0-0.7,0-1.4,0.1-2c0.2-1.6,1-2.5,2.7-2.5c8.9,0,17.9,0,26.8,0
		c1.6,0,2.4,0.8,2.7,2.3c0.1,0.6,0.1,1.1,0.1,1.7c0,12.6,0,25.2,0,37.7c0,0.6,0,1.1-0.1,1.7c-0.2,1.4-1.1,2.2-2.6,2.2
		c-9,0-18,0-27,0c-1.6,0-2.5-0.9-2.6-2.4c-0.1-1.5-0.1-3.1-0.1-4.6C10.5,33.4,10.5,28.1,10.5,22.8z M11.9,22.8c0,6.4,0,12.7,0,19.1
		c0,2.4,0.2,2.6,2.5,2.6c8.2,0,16.5,0,24.7,0c2.1,0,2.4-0.3,2.4-2.4c0-12.9,0-25.7,0-38.6c0-2.1-0.3-2.3-2.4-2.3
		c-8.2,0-16.5,0-24.7,0c-2.2,0-2.5,0.2-2.5,2.4C11.9,10,11.9,16.4,11.9,22.8z"/>
	<path class="st1" d="M33.2,23.6c1.5,0,3.1,0,4.6,0c0.5,0,1.2,0,1.2,0.9c0.1,1-0.6,1.2-1.2,1.2c-3.2,0-6.3,0-9.5,0
		c-0.6,0-1.1-0.2-1.1-1.1c0-0.9,0.6-1,1.2-1C30,23.6,31.6,23.6,33.2,23.6z"/>
	<path class="st1" d="M33.2,27.7c1.5,0,3.1,0,4.6,0c0.5,0,1.2,0,1.2,0.9c0.1,1-0.6,1.2-1.2,1.2c-3.2,0-6.3,0-9.5,0
		c-0.6,0-1.1-0.2-1.1-1.1c0-0.9,0.6-1,1.2-1C30,27.7,31.6,27.7,33.2,27.7z"/>
	<path class="st1" d="M33.2,31.8c1.5,0,3,0,4.5,0c0.6,0,1.3,0,1.3,1c0,1-0.6,1.2-1.2,1.2c-3.1,0-6.3,0-9.4,0c-0.5,0-1.1-0.1-1.2-1
		c0-1,0.6-1.1,1.2-1.1C30.1,31.8,31.7,31.8,33.2,31.8z"/>
	<path class="st1" d="M33.2,35.9c1.5,0,3.1,0,4.6,0c0.5,0,1.2,0,1.2,0.9c0,1-0.6,1.2-1.2,1.2c-3.1,0-6.2,0-9.4,0
		c-0.6,0-1.3-0.2-1.2-1.2c0-1,0.7-1,1.3-1C30.1,35.9,31.7,35.9,33.2,35.9z"/>
	<path class="st1" d="M33.1,42.1c-1.4,0-2.8,0-4.2,0c-0.7,0-1.6,0.1-1.6-1.2c0-1.2,0.9-1,1.5-1c2.9,0,5.8,0,8.7,0
		c0.6,0,1.5-0.2,1.5,1.1c0,1.1-0.9,1.1-1.5,1.1C36,42.2,34.6,42.1,33.1,42.1z"/>
	<rect x="14.1" y="10.6" class="st1" width="5.3" height="9.8"/>
	<rect x="20.8" y="8.2" class="st1" width="5.3" height="12.3"/>
	<rect x="27.3" y="12.6" class="st1" width="5.3" height="7.9"/>
	<rect x="33.8" y="3.8" class="st1" width="5.3" height="16.8"/>
	<g>
		<path class="st1" d="M16.5,35c-0.8,0-1.6,0-2.3,0c0-0.7,0-1.4,0-2.1c0.7,0,1.5,0,2.2,0c0-0.2,0-0.3,0-0.5c0-1.1,0.1-2.3,0.5-3.4
			c0.8-2.4,2.6-3.6,5.2-3.2c0.5,0.1,1,0.2,1.5,0.3c0.2,0,0.3,0.1,0.5,0.2c-0.2,0.7-0.4,1.3-0.7,2c-0.3-0.1-0.6-0.2-0.9-0.2
			c-0.6-0.1-1.1-0.2-1.7-0.2c-0.8,0-1.4,0.5-1.7,1.2c-0.6,1.2-0.6,2.4-0.6,3.8c1.1,0,2.1,0,3.2,0c0,0.7,0,1.4,0,2.1c-1,0-2,0-3.1,0
			c-0.1,1.8-0.2,3.5-1.3,5c2.4,0,4.6,0,6.9,0c0,0.7,0,1.4,0,2.1c-3.4,0-6.8,0-10.2,0c0-0.7,0-1.4,0-2c0-0.1,0.1-0.2,0.2-0.2
			c1.4-0.7,2-1.9,2.1-3.4C16.4,36,16.4,35.6,16.5,35z"/>
	</g>
</g>
<g>
	<path class="st0" d="M10.1,71.7c0-6.1,0-12.2,0-18.3c0-0.7,0-1.4,0.1-2c0.2-1.6,1-2.5,2.7-2.5c8.9,0,17.9,0,26.8,0
		c1.6,0,2.4,0.8,2.7,2.3c0.1,0.6,0.1,1.1,0.1,1.7c0,12.6,0,25.2,0,37.7c0,0.6,0,1.1-0.1,1.7c-0.2,1.4-1.1,2.2-2.6,2.2
		c-9,0-18,0-27,0c-1.6,0-2.5-0.9-2.6-2.4c-0.1-1.5-0.1-3.1-0.1-4.6C10.1,82.3,10.1,77,10.1,71.7z M11.5,71.7c0,6.4,0,12.7,0,19.1
		c0,2.4,0.2,2.6,2.5,2.6c8.2,0,16.5,0,24.7,0c2.1,0,2.4-0.3,2.4-2.4c0-12.9,0-25.7,0-38.6c0-2.1-0.3-2.3-2.4-2.3
		c-8.2,0-16.5,0-24.7,0c-2.2,0-2.5,0.2-2.5,2.4C11.5,59,11.5,65.3,11.5,71.7z"/>
	<path class="st0" d="M32.8,72.6c1.5,0,3.1,0,4.6,0c0.5,0,1.2,0,1.2,0.9c0.1,1-0.6,1.2-1.2,1.2c-3.2,0-6.3,0-9.5,0
		c-0.6,0-1.1-0.2-1.1-1.1c0-0.9,0.6-1,1.2-1C29.6,72.6,31.2,72.6,32.8,72.6z"/>
	<path class="st0" d="M32.8,76.7c1.5,0,3.1,0,4.6,0c0.5,0,1.2,0,1.2,0.9c0.1,1-0.6,1.2-1.2,1.2c-3.2,0-6.3,0-9.5,0
		c-0.6,0-1.1-0.2-1.1-1.1c0-0.9,0.6-1,1.2-1C29.6,76.7,31.2,76.7,32.8,76.7z"/>
	<path class="st0" d="M32.8,80.7c1.5,0,3,0,4.5,0c0.6,0,1.3,0,1.3,1c0,1-0.6,1.2-1.2,1.2c-3.1,0-6.3,0-9.4,0c-0.5,0-1.1-0.1-1.2-1
		c0-1,0.6-1.1,1.2-1.1C29.6,80.7,31.2,80.7,32.8,80.7z"/>
	<path class="st0" d="M32.8,84.8c1.5,0,3.1,0,4.6,0c0.5,0,1.2,0,1.2,0.9c0,1-0.6,1.2-1.2,1.2c-3.1,0-6.2,0-9.4,0
		c-0.6,0-1.3-0.2-1.2-1.2c0-1,0.7-1,1.3-1C29.7,84.8,31.2,84.8,32.8,84.8z"/>
	<path class="st0" d="M32.7,91.1c-1.4,0-2.8,0-4.2,0c-0.7,0-1.6,0.1-1.6-1.2c0-1.2,0.9-1,1.5-1c2.9,0,5.8,0,8.7,0
		c0.6,0,1.5-0.2,1.5,1.1c0,1.1-0.9,1.1-1.5,1.1C35.6,91.1,34.1,91.1,32.7,91.1z"/>
	<rect x="13.6" y="59.6" class="st0" width="5.3" height="9.8"/>
	<rect x="20.3" y="57.2" class="st0" width="5.3" height="12.3"/>
	<rect x="26.8" y="61.6" class="st0" width="5.3" height="7.9"/>
	<rect x="33.3" y="52.8" class="st0" width="5.3" height="16.8"/>
	<g>
		<path class="st0" d="M16,84c-0.8,0-1.6,0-2.3,0c0-0.7,0-1.4,0-2.1c0.7,0,1.5,0,2.2,0c0-0.2,0-0.3,0-0.5c0-1.1,0.1-2.3,0.5-3.4
			c0.8-2.4,2.6-3.6,5.2-3.2c0.5,0.1,1,0.2,1.5,0.3c0.2,0,0.3,0.1,0.5,0.2c-0.2,0.7-0.4,1.3-0.7,2c-0.3-0.1-0.6-0.2-0.9-0.2
			c-0.6-0.1-1.1-0.2-1.7-0.2c-0.8,0-1.4,0.5-1.7,1.2c-0.6,1.2-0.6,2.4-0.6,3.8c1.1,0,2.1,0,3.2,0c0,0.7,0,1.4,0,2.1c-1,0-2,0-3.1,0
			c-0.1,1.8-0.2,3.5-1.3,5c2.4,0,4.6,0,6.9,0c0,0.7,0,1.4,0,2.1c-3.4,0-6.8,0-10.2,0c0-0.7,0-1.4,0-2c0-0.1,0.1-0.2,0.2-0.2
			c1.4-0.7,2-1.9,2.1-3.4C16,85,16,84.5,16,84z"/>
	</g>
</g>
</svg>
