<svg width="28" height="21" viewBox="0 0 28 21" fill="none" xmlns="http://www.w3.org/2000/svg">
<g clip-path="url(#clip0_1980_16)">
<path d="M26.3086 8.22955V8.63136C26.1868 9.15873 26.0632 9.68517 25.9452 10.2125C25.8434 10.6711 25.6255 10.8543 25.147 10.8636C24.9368 10.8683 24.7256 10.8636 24.4754 10.8636C24.5353 10.9538 24.5629 11.0031 24.5981 11.0469C26.028 12.8299 25.9005 15.3505 24.3041 16.9744C24.2204 17.0591 24.1605 17.2023 24.1576 17.3204C24.1443 18.032 24.1519 18.7444 24.151 19.4569C24.1491 20.1787 23.7485 20.573 23.0065 20.5777C22.3035 20.5823 21.6014 20.5833 20.8983 20.5777C20.1696 20.5721 19.7757 20.1815 19.771 19.469C19.7691 19.1286 19.771 18.7872 19.771 18.4115H6.52253C6.52253 18.7723 6.52539 19.1304 6.52253 19.4894C6.51682 20.1721 6.12582 20.5665 5.42563 20.5749C4.69785 20.5842 3.96912 20.5851 3.24039 20.5749C2.54496 20.5647 2.14634 20.1619 2.14444 19.4839C2.14159 18.7547 2.1511 18.0264 2.13683 17.2972C2.13398 17.1716 2.07309 17.02 1.98652 16.9279C0.654634 15.5077 0.387306 13.8846 1.04754 12.1044C1.20451 11.6812 1.4804 11.2998 1.71824 10.8701C1.52416 10.8701 1.32248 10.8757 1.12174 10.8692C0.675564 10.8534 0.44629 10.6664 0.354009 10.2404C0.240799 9.71679 0.134248 9.19128 0.0276975 8.6667C-0.0912207 8.08538 0.175156 7.76171 0.781163 7.75892C1.51846 7.7552 2.2548 7.75147 2.99209 7.76264C3.16904 7.76543 3.24325 7.70218 3.31174 7.5515C3.61712 6.87903 3.91109 6.20005 4.25928 5.54991C4.71498 4.697 5.31337 3.95756 6.25901 3.5725C6.72422 3.38368 7.19704 3.20975 7.67652 3.05722C8.08655 2.927 8.51085 2.83771 8.93324 2.72889C8.93324 2.19035 8.93324 1.67135 8.93324 1.15235C8.93419 0.396174 9.32995 0.00366773 10.1024 0.00273762C12.1336 0.000877404 14.1637 -5.27044e-05 16.1949 0.00273762C16.9645 0.00366773 17.3603 0.398964 17.3612 1.15607C17.3612 1.68251 17.3612 2.20896 17.3612 2.71773C17.9615 2.88421 18.5418 3.02931 19.1117 3.20696C20.2533 3.56226 21.2513 4.12684 21.8278 5.20763C22.2388 5.97683 22.6088 6.76835 22.9837 7.55522C23.056 7.70683 23.1292 7.76636 23.3043 7.76357C24.0064 7.75241 24.7104 7.77473 25.4115 7.75334C25.8225 7.74124 26.126 7.86309 26.3086 8.23141V8.22955ZM4.99562 8.7718H21.2722C21.2665 8.72623 21.2693 8.69181 21.256 8.66298C20.9563 7.97935 20.6567 7.29572 20.3522 6.61395C20.0202 5.87359 19.4456 5.41132 18.6703 5.13415C17.5087 4.71932 16.3071 4.51749 15.0856 4.41424C13.631 4.29147 12.1754 4.3017 10.7237 4.46261C9.59823 4.58724 8.49182 4.79094 7.43487 5.21135C6.84123 5.44759 6.36176 5.79825 6.07921 6.37212C5.82329 6.89112 5.57214 7.41385 5.32955 7.93936C5.20777 8.20351 5.11169 8.47882 4.99467 8.77273L4.99562 8.7718ZM22.6126 14.0269C22.6136 12.9489 21.7222 12.0811 20.6205 12.0886C19.5303 12.096 18.6474 12.9601 18.6465 14.0232C18.6446 15.0891 19.5569 15.9783 20.6415 15.969C21.7288 15.9588 22.6117 15.09 22.6126 14.0279V14.0269ZM5.67964 12.0886C4.58845 12.0969 3.7056 12.9601 3.70274 14.0232C3.69989 15.0845 4.61794 15.9774 5.70247 15.9681C6.7832 15.9588 7.68032 15.0779 7.68127 14.026C7.68222 12.9592 6.77464 12.0802 5.68059 12.0886H5.67964Z" fill="#008285"/>
<path d="M27.7623 15.2529V15.863C27.7566 15.8918 27.7471 15.9207 27.7452 15.9504C27.7157 16.3718 27.6301 16.782 27.496 17.1828C26.7387 19.4542 24.4612 20.9814 21.9125 20.7414C20.7937 20.6363 19.7939 20.2308 18.9529 19.4997C17.5287 18.2608 16.9322 16.6992 17.1577 14.852C17.2823 13.8344 17.7076 12.9332 18.3963 12.1575C19.2288 11.2199 20.2734 10.6414 21.5253 10.4274C21.7223 10.394 21.922 10.3744 22.1209 10.3484C22.3292 10.3484 22.5376 10.3484 22.745 10.3484C22.8819 10.3642 23.0199 10.3772 23.1559 10.3968C24.1977 10.5428 25.1243 10.9418 25.9186 11.6189C26.8728 12.4328 27.4627 13.4512 27.6796 14.6715C27.7138 14.8641 27.7338 15.0594 27.7604 15.2529H27.7623Z" fill="white"/>
<path d="M22.4434 21C22.2608 21 22.0752 20.9917 21.8897 20.974C20.6986 20.8614 19.6569 20.4243 18.795 19.6746C17.3157 18.3883 16.6859 16.7559 16.9218 14.825C17.0502 13.7777 17.4859 12.829 18.2175 12.0059C19.0861 11.0293 20.1849 10.421 21.4854 10.1996C21.6262 10.1754 21.767 10.1587 21.903 10.1419C21.9649 10.1345 22.0277 10.1271 22.0895 10.1187L22.1209 10.1168L22.7735 10.1187L22.9039 10.1336C22.9999 10.1438 23.0951 10.154 23.1912 10.168C24.2938 10.3224 25.2641 10.7521 26.0766 11.445C27.0717 12.2933 27.6901 13.3666 27.9155 14.6334C27.9403 14.7711 27.9574 14.9097 27.9745 15.0427C27.9821 15.1031 27.9898 15.1627 27.9983 15.2231L28.0002 15.2538L27.9955 15.9086C27.9926 15.9207 27.9898 15.9337 27.9869 15.9458C27.985 15.9533 27.9831 15.9616 27.9821 15.9691C27.9527 16.3941 27.8651 16.8276 27.7224 17.2563C26.968 19.5202 24.8437 21 22.4434 21ZM22.1371 10.5819C22.0781 10.5893 22.0201 10.5968 21.9611 10.6033C21.8241 10.62 21.6957 10.6358 21.5663 10.6572C20.3771 10.86 19.3706 11.4162 18.5752 12.3109C17.9074 13.0625 17.5097 13.9265 17.3927 14.8799C17.1758 16.6508 17.7542 18.1474 19.1099 19.3268C19.8948 20.0095 20.8451 20.4075 21.9344 20.5108C24.3318 20.7359 26.5266 19.3389 27.2696 17.1122C27.3999 16.7206 27.4798 16.3244 27.5074 15.9356C27.5103 15.8965 27.5179 15.863 27.5236 15.8389V15.2687C27.516 15.212 27.5084 15.1552 27.5017 15.0985C27.4846 14.9645 27.4684 14.8381 27.4465 14.7116C27.2401 13.5526 26.674 12.5704 25.7636 11.7938C25.0216 11.1613 24.133 10.7679 23.1227 10.6265C23.0323 10.6135 22.9419 10.6042 22.8506 10.594L22.7317 10.5809H22.1361L22.1371 10.5819Z" fill="#008285"/>
<path d="M22.43 16.1736C22.0827 16.5141 21.745 16.8452 21.4063 17.1763C21.2303 17.3493 21.0553 17.5242 20.8755 17.6934C20.6785 17.8795 20.4112 17.8813 20.2333 17.7046C20.0573 17.5297 20.0621 17.2758 20.2447 17.0833C20.2657 17.061 20.2885 17.0396 20.3104 17.0182C20.7784 16.5606 21.2465 16.102 21.7155 15.6444C21.7422 15.6184 21.7745 15.5979 21.8106 15.57C21.7707 15.5281 21.746 15.5012 21.7203 15.4751C21.2351 14.9998 20.748 14.5264 20.2638 14.0502C20.043 13.8325 20.0526 13.5386 20.2828 13.3684C20.4379 13.2531 20.6491 13.2503 20.806 13.3638C20.8479 13.3935 20.885 13.4298 20.9221 13.4652C21.3959 13.9274 21.8687 14.3906 22.3415 14.8538C22.3681 14.8799 22.3881 14.9133 22.4176 14.9515C22.4614 14.9115 22.488 14.8873 22.5146 14.8622C23.0008 14.3878 23.485 13.9125 23.9721 13.4382C24.1919 13.2243 24.4858 13.2289 24.6628 13.4456C24.7903 13.6019 24.795 13.813 24.6713 13.973C24.6419 14.0102 24.6086 14.0446 24.5743 14.0781C24.1015 14.5413 23.6277 15.0036 23.1539 15.4658C23.1273 15.4919 23.095 15.5133 23.056 15.5439C23.0921 15.5821 23.1159 15.6091 23.1425 15.6342C23.6277 16.1095 24.1129 16.5838 24.599 17.0591C24.7218 17.1791 24.7903 17.3167 24.7503 17.4897C24.6771 17.8088 24.3032 17.938 24.0397 17.7344C24.0045 17.7074 23.9721 17.6758 23.9407 17.6451C23.4669 17.1828 22.9941 16.7196 22.5213 16.2564C22.4947 16.2304 22.4671 16.2062 22.4309 16.1718L22.43 16.1736Z" fill="#008285"/>
<path d="M20.5425 17.8823C20.4189 17.8823 20.298 17.8339 20.201 17.7381C20.0069 17.5456 20.0107 17.2638 20.2115 17.0526C20.2276 17.0359 20.2438 17.0201 20.2609 17.0033L20.4436 16.8247C20.8565 16.4201 21.2703 16.0165 21.6832 15.6128C21.7003 15.5961 21.7203 15.5812 21.7412 15.5654C21.7213 15.543 21.7051 15.5263 21.688 15.5096L21.2161 15.0492C20.8879 14.7283 20.5587 14.4074 20.2315 14.0846C20.1097 13.9647 20.0488 13.8196 20.0593 13.6735C20.0688 13.5405 20.1382 13.4196 20.2562 13.3322C20.4293 13.2038 20.6624 13.202 20.8365 13.3275C20.8803 13.3592 20.9193 13.3954 20.9573 13.4336C21.4311 13.8958 21.9049 14.359 22.3767 14.8222C22.3958 14.8408 22.411 14.8613 22.4262 14.8827C22.4481 14.8622 22.4652 14.8464 22.4823 14.8306L22.9675 14.3562C23.291 14.04 23.6144 13.7228 23.9388 13.4075C24.0606 13.2894 24.2081 13.2299 24.3555 13.2364C24.4887 13.2438 24.6114 13.308 24.7009 13.4187C24.8426 13.5926 24.8464 13.827 24.7094 14.0028C24.678 14.0437 24.6419 14.0791 24.6076 14.1135C24.1348 14.5767 23.6611 15.0389 23.1873 15.5012C23.1692 15.5189 23.1483 15.5347 23.1254 15.5524C23.1435 15.5719 23.1597 15.5886 23.1759 15.6044C23.6611 16.0797 24.1462 16.5541 24.6324 17.0294C24.7827 17.1754 24.836 17.3307 24.796 17.5028C24.758 17.6683 24.6409 17.7995 24.4821 17.8544C24.3232 17.9092 24.1462 17.8786 24.0102 17.7735C23.9731 17.7446 23.9398 17.713 23.9065 17.6804L22.4871 16.2918C22.47 16.275 22.4519 16.2583 22.431 16.2397L21.2932 17.3558C21.1666 17.4814 21.0391 17.606 20.9098 17.7288C20.8013 17.8311 20.671 17.8832 20.5425 17.8832V17.8823ZM20.5502 13.3285C20.4674 13.3285 20.3846 13.3545 20.3133 13.4075C20.2181 13.4782 20.162 13.5749 20.1544 13.681C20.1458 13.7991 20.1972 13.9191 20.299 14.0195C20.6263 14.3413 20.9554 14.6622 21.2836 14.9831L21.7555 15.4435C21.7736 15.4612 21.7907 15.4789 21.8116 15.5021L21.882 15.5765L21.8421 15.6072C21.8297 15.6165 21.8183 15.6249 21.8069 15.6333C21.7869 15.6482 21.7679 15.6621 21.7517 15.6779C21.3379 16.0816 20.925 16.4852 20.5121 16.8898L20.3285 17.0694C20.3123 17.0842 20.2971 17.1001 20.2819 17.1159C20.1154 17.2907 20.1106 17.5149 20.2695 17.673C20.4312 17.8339 20.6672 17.8283 20.8441 17.6618C20.9735 17.54 21.1 17.4154 21.2266 17.2907L22.43 16.1104L22.4966 16.1727C22.5185 16.1923 22.5366 16.2099 22.5546 16.2276L23.974 17.6163C24.0054 17.647 24.0368 17.6767 24.0692 17.7018C24.1795 17.7874 24.3222 17.8125 24.4507 17.7679C24.5782 17.7242 24.6733 17.6172 24.7037 17.4833C24.7361 17.3428 24.6923 17.22 24.5658 17.0954C24.0796 16.621 23.5945 16.1458 23.1093 15.6705C23.0912 15.6528 23.075 15.6351 23.0541 15.6128L22.9865 15.5421L23.0265 15.5105C23.0398 15.5003 23.0522 15.49 23.0646 15.4817C23.0855 15.4659 23.1045 15.4519 23.1207 15.4361C23.5945 14.9738 24.0682 14.5106 24.541 14.0484C24.5724 14.0167 24.6067 13.9833 24.6343 13.9479C24.7437 13.8065 24.7408 13.6177 24.6267 13.4773C24.5525 13.3871 24.4573 13.3359 24.3498 13.3303C24.2319 13.3238 24.1082 13.375 24.0064 13.4745C23.682 13.7898 23.3585 14.107 23.0351 14.4232L22.5499 14.8976C22.5328 14.9143 22.5137 14.931 22.4909 14.9524L22.4129 15.024L22.3805 14.9822C22.3701 14.9692 22.3615 14.9562 22.352 14.9441C22.3368 14.9227 22.3235 14.9041 22.3082 14.8901C21.8354 14.4269 21.3626 13.9637 20.8888 13.5015C20.8527 13.4661 20.8175 13.4326 20.7785 13.4047C20.71 13.3554 20.6291 13.3303 20.5492 13.3303L20.5502 13.3285Z" fill="#008285"/>
</g>
<defs>
<clipPath id="clip0_1980_16">
<rect width="28" height="21" fill="white"/>
</clipPath>
</defs>
</svg>
