<svg width="60" height="124" viewBox="0 0 60 124" fill="none" xmlns="http://www.w3.org/2000/svg">
<path d="M32.7861 30.5027V43.6687C31.4352 43.6687 30.1881 43.7724 28.9411 43.6687C28.6293 43.6687 28.1097 43.1504 28.1097 42.7357C28.0058 39.0036 28.0058 35.2715 28.1097 31.5394C28.1097 31.2284 28.6293 30.6064 28.9411 30.6064C30.292 30.5027 31.5391 30.5027 32.7861 30.5027Z" fill="white"/>
<g clip-path="url(#clip0_1992_3)">
<path d="M54.7749 19.9892V20.7628C54.5399 21.7782 54.3012 22.7917 54.0735 23.8071C53.8771 24.6899 53.4566 25.0427 52.5331 25.0606C52.1273 25.0695 51.7197 25.0606 51.2368 25.0606C51.3525 25.2343 51.4057 25.3292 51.4736 25.4134C54.2333 28.8462 53.9872 33.6991 50.9063 36.8257C50.7447 36.9887 50.629 37.2644 50.6235 37.4919C50.5978 38.8618 50.6125 40.2335 50.6107 41.6052C50.607 42.9948 49.834 43.7541 48.4019 43.763C47.045 43.772 45.69 43.7738 44.3332 43.763C42.9267 43.7523 42.1666 43.0002 42.1574 41.6285C42.1538 40.973 42.1574 40.3158 42.1574 39.5924H16.5883C16.5883 40.2872 16.5938 40.9766 16.5883 41.6678C16.5773 42.9822 15.8227 43.7415 14.4713 43.7576C13.0667 43.7755 11.6603 43.7773 10.2539 43.7576C8.9117 43.7379 8.14238 42.9626 8.13871 41.6571C8.1332 40.2532 8.15156 38.851 8.12402 37.4471C8.11851 37.2053 8.00101 36.9135 7.83392 36.7362C5.26343 34.0017 4.74749 30.8769 6.02172 27.4494C6.32467 26.6346 6.85713 25.9004 7.31615 25.0731C6.94159 25.0731 6.55235 25.0839 6.16494 25.0713C5.30382 25.0409 4.86133 24.6809 4.68323 23.8608C4.46474 22.8526 4.2591 21.8408 4.05346 20.8309C3.82395 19.7117 4.33805 19.0885 5.50762 19.0831C6.93058 19.0759 8.3517 19.0688 9.77465 19.0903C10.1162 19.0956 10.2594 18.9739 10.3916 18.6838C10.9809 17.3891 11.5483 16.0818 12.2203 14.8301C13.0998 13.188 14.2547 11.7644 16.0797 11.023C16.9776 10.6595 17.8901 10.3246 18.8155 10.031C19.6068 9.78025 20.4257 9.60834 21.2409 9.39882C21.2409 8.36199 21.2409 7.36276 21.2409 6.36353C21.2427 4.90766 22.0066 4.15197 23.4974 4.15018C27.4174 4.1466 31.3356 4.14481 35.2556 4.15018C36.741 4.15197 37.5048 4.91303 37.5067 6.37069C37.5067 7.38425 37.5067 8.3978 37.5067 9.37733C38.6652 9.69787 39.7852 9.97723 40.885 10.3193C43.0883 11.0033 45.0143 12.0903 46.127 14.1711C46.9202 15.6521 47.6344 17.176 48.3578 18.6909C48.4974 18.9828 48.6388 19.0974 48.9766 19.0921C50.3316 19.0706 51.6903 19.1136 53.0435 19.0724C53.8367 19.0491 54.4224 19.2837 54.7749 19.9928V19.9892ZM13.6414 21.0332H45.0547C45.0437 20.9455 45.0492 20.8792 45.0235 20.8237C44.4452 19.5075 43.8668 18.1913 43.2793 16.8787C42.6385 15.4533 41.5295 14.5633 40.0331 14.0297C37.7912 13.231 35.4723 12.8424 33.1148 12.6436C30.3074 12.4073 27.4982 12.427 24.6964 12.7367C22.5243 12.9767 20.389 13.3689 18.3491 14.1783C17.2034 14.6331 16.278 15.3082 15.7327 16.4131C15.2388 17.4124 14.7541 18.4187 14.2859 19.4305C14.0509 19.9391 13.8654 20.4691 13.6396 21.035L13.6414 21.0332ZM47.6418 31.1509C47.6436 29.0754 45.9232 27.4047 43.797 27.419C41.6929 27.4333 39.989 29.0969 39.9872 31.1437C39.9835 33.1959 41.7443 34.9078 43.8374 34.8899C45.9361 34.8702 47.6399 33.1977 47.6418 31.1527V31.1509ZM14.9615 27.419C12.8556 27.4351 11.1517 29.0969 11.1462 31.1437C11.1407 33.1869 12.9125 34.906 15.0056 34.8881C17.0914 34.8702 18.8228 33.1744 18.8246 31.1491C18.8265 29.0951 17.0749 27.4029 14.9634 27.419H14.9615Z" fill="#008285"/>
<path d="M55.9606 32.8259L55.9653 34.0535C55.9543 34.1116 55.9357 34.1697 55.9322 34.2296C55.8773 35.0776 55.7116 35.9035 55.4502 36.7111C53.9745 41.2869 49.4952 44.3771 44.4674 43.9137C42.2604 43.7107 40.2856 42.9024 38.6215 41.4378C35.8034 38.9559 34.6151 35.8183 35.0453 32.0999C35.2832 30.0516 36.1148 28.235 37.467 26.669C39.1013 24.7762 41.1567 23.6043 43.6239 23.1643C44.0119 23.0954 44.4057 23.0546 44.7976 23.0007C45.2085 22.9991 45.6193 22.9975 46.0283 22.996C46.2986 23.0267 46.5707 23.0519 46.8391 23.0902C48.8945 23.376 50.7249 24.1718 52.2966 25.5282C54.1846 27.1585 55.3556 29.2032 55.7928 31.6569C55.8619 32.044 55.9028 32.4368 55.9568 32.8259L55.9606 32.8259Z" fill="white"/>
<path d="M45.0618 44.578C44.7035 44.578 44.3397 44.5613 43.9758 44.5259C41.6397 44.3008 39.5964 43.4263 37.9059 41.9267C35.0044 39.3535 33.7691 36.0882 34.2319 32.2256C34.4838 30.1306 35.3384 28.2328 36.7733 26.5862C38.4769 24.6326 40.632 23.4158 43.1828 22.973C43.4589 22.9246 43.7351 22.8911 44.0019 22.8576C44.1232 22.8427 44.2464 22.8278 44.3677 22.8111L44.4292 22.8074L45.7093 22.8111L45.9649 22.8409C46.1534 22.8613 46.34 22.8818 46.5284 22.9097C48.691 23.2186 50.5943 24.0782 52.1878 25.4643C54.1396 27.1611 55.3524 29.3082 55.7947 31.8423C55.8432 32.1177 55.8768 32.3949 55.9104 32.661C55.9253 32.7819 55.9402 32.901 55.957 33.022L55.9607 33.0834L55.9514 34.3932C55.9458 34.4174 55.9402 34.4434 55.9346 34.4676C55.9309 34.4825 55.9271 34.4993 55.9253 34.5141C55.8674 35.3644 55.6958 36.2315 55.4159 37.0892C53.9362 41.6178 49.7695 44.578 45.0618 44.578ZM44.461 23.7377C44.3453 23.7525 44.2314 23.7674 44.1158 23.7805C43.8471 23.8139 43.5952 23.8456 43.3414 23.8884C41.009 24.294 39.0348 25.4066 37.4749 27.1965C36.165 28.6998 35.385 30.4283 35.1555 32.3354C34.7301 35.8779 35.8646 38.8716 38.5235 41.2308C40.0629 42.5965 41.927 43.3928 44.0635 43.5994C48.7657 44.0496 53.0704 41.255 54.5277 36.8008C54.7833 36.0175 54.9401 35.2249 54.9942 34.4472C54.9998 34.369 55.0147 34.302 55.0259 34.2537V33.1131C55.011 32.9996 54.996 32.8861 54.983 32.7726C54.9494 32.5047 54.9177 32.2517 54.8748 31.9986C54.4698 29.6804 53.3596 27.7156 51.5739 26.162C50.1185 24.8968 48.3757 24.1098 46.3941 23.827C46.2168 23.8009 46.0395 23.7823 45.8604 23.7619L45.6272 23.7358H44.4591L44.461 23.7377Z" fill="#008285"/>
<path d="M45.2655 36.2196C44.1808 37.3043 43.1259 38.3594 42.068 39.4145C41.5182 39.9658 40.9714 40.523 40.4098 41.0624C39.7947 41.6551 38.9596 41.6611 38.4039 41.098C37.8542 40.5408 37.869 39.7317 38.4396 39.1182C38.505 39.047 38.5763 38.9789 38.6446 38.9107C40.1067 37.4525 41.5688 35.9914 43.0338 34.5332C43.117 34.4502 43.218 34.385 43.3309 34.2961C43.2061 34.1627 43.1289 34.0768 43.0486 33.9938C41.5331 32.4793 40.0116 30.9708 38.499 29.4533C37.8096 28.7598 37.8393 27.8233 38.5585 27.2809C39.0428 26.9134 39.7025 26.9045 40.1929 27.2661C40.3236 27.3609 40.4395 27.4765 40.5554 27.5891C42.0353 29.0621 43.5122 30.5381 44.9891 32.014C45.0723 32.097 45.1348 32.2037 45.2269 32.3252C45.3636 32.1978 45.4468 32.1207 45.53 32.0407C47.0485 30.5292 48.5611 29.0147 50.0826 27.5032C50.769 26.8215 51.6873 26.8363 52.24 27.5269C52.6382 28.0248 52.6531 28.6976 52.2667 29.2073C52.1746 29.3259 52.0706 29.4355 51.9636 29.5422C50.4867 31.0182 49.0068 32.4912 47.5269 33.9642C47.4437 34.0472 47.3427 34.1153 47.2209 34.2131C47.3338 34.3346 47.4081 34.4206 47.4913 34.5006C49.0068 36.0151 50.5224 37.5266 52.0409 39.0411C52.4242 39.4234 52.6382 39.8621 52.5134 40.4133C52.2846 41.4299 51.1167 41.8419 50.2936 41.1928C50.1836 41.1068 50.0826 41.0061 49.9845 40.9083C48.5046 39.4353 47.0277 37.9593 45.5508 36.4834C45.4676 36.4004 45.3814 36.3233 45.2685 36.2137L45.2655 36.2196Z" fill="#008285"/>
</g>
<g clip-path="url(#clip1_1992_3)">
<path d="M54.7749 82.0095V82.7831C54.5399 83.7985 54.3012 84.812 54.0735 85.8274C53.8771 86.7102 53.4566 87.063 52.533 87.0809C52.1273 87.0899 51.7197 87.0809 51.2368 87.0809C51.3525 87.2546 51.4057 87.3495 51.4736 87.4337C54.2332 90.8665 53.9872 95.7194 50.9063 98.846C50.7447 99.009 50.629 99.2848 50.6235 99.5122C50.5978 100.882 50.6125 102.254 50.6107 103.625C50.607 105.015 49.834 105.774 48.4019 105.783C47.045 105.792 45.69 105.794 44.3332 105.783C42.9267 105.773 42.1666 105.02 42.1574 103.649C42.1537 102.993 42.1574 102.336 42.1574 101.613H16.5883C16.5883 102.308 16.5938 102.997 16.5883 103.688C16.5773 105.003 15.8227 105.762 14.4713 105.778C13.0667 105.796 11.6603 105.798 10.2539 105.778C8.9117 105.758 8.14238 104.983 8.13871 103.677C8.1332 102.273 8.15156 100.871 8.12402 99.4674C8.11851 99.2257 8.00101 98.9338 7.83392 98.7565C5.26343 96.022 4.74749 92.8972 6.02172 89.4697C6.32467 88.655 6.85713 87.9208 7.31615 87.0934C6.94159 87.0934 6.55235 87.1042 6.16494 87.0916C5.30382 87.0612 4.86133 86.7013 4.68323 85.8811C4.46474 84.8729 4.2591 83.8612 4.05346 82.8512C3.82395 81.732 4.33805 81.1088 5.50762 81.1034C6.93058 81.0963 8.3517 81.0891 9.77465 81.1106C10.1162 81.116 10.2594 80.9942 10.3916 80.7041C10.9809 79.4094 11.5483 78.1022 12.2203 76.8504C13.0998 75.2083 14.2547 73.7847 16.0797 73.0433C16.9776 72.6798 17.8901 72.345 18.8155 72.0513C19.6068 71.8006 20.4257 71.6287 21.2409 71.4191C21.2409 70.3823 21.2409 69.3831 21.2409 68.3839C21.2427 66.928 22.0065 66.1723 23.4974 66.1705C27.4174 66.1669 31.3356 66.1651 35.2556 66.1705C36.741 66.1723 37.5048 66.9334 37.5067 68.391C37.5067 69.4046 37.5067 70.4181 37.5067 71.3977C38.6652 71.7182 39.7852 71.9976 40.885 72.3396C43.0883 73.0236 45.0143 74.1106 46.127 76.1915C46.9202 77.6724 47.6344 79.1963 48.3578 80.7113C48.4974 81.0032 48.6388 81.1178 48.9766 81.1124C50.3316 81.0909 51.6903 81.1339 53.0435 81.0927C53.8367 81.0694 54.4224 81.304 54.7749 82.0131V82.0095ZM13.6414 83.0535H45.0547C45.0437 82.9658 45.0492 82.8995 45.0235 82.844C44.4452 81.5278 43.8668 80.2117 43.2793 78.899C42.6385 77.4736 41.5295 76.5836 40.0331 76.05C37.7912 75.2513 35.4723 74.8627 33.1148 74.664C30.3074 74.4276 27.4982 74.4473 24.6964 74.7571C22.5243 74.997 20.389 75.3892 18.3491 76.1986C17.2034 76.6535 16.278 77.3286 15.7327 78.4335C15.2388 79.4327 14.7541 80.4391 14.2859 81.4508C14.0509 81.9594 13.8654 82.4895 13.6396 83.0553L13.6414 83.0535ZM47.6418 93.1712C47.6436 91.0957 45.9232 89.425 43.797 89.4393C41.6929 89.4536 39.989 91.1172 39.9872 93.164C39.9835 95.2162 41.7443 96.9282 43.8374 96.9102C45.9361 96.8905 47.6399 95.218 47.6418 93.173V93.1712ZM14.9615 89.4393C12.8556 89.4554 11.1517 91.1172 11.1462 93.164C11.1407 95.2073 12.9125 96.9264 15.0056 96.9085C17.0914 96.8905 18.8228 95.1947 18.8246 93.1694C18.8265 91.1154 17.0749 89.4232 14.9634 89.4393H14.9615Z" fill="#FCFFFF"/>
<path d="M55.9606 95.0185L55.9653 96.2462C55.9543 96.3042 55.9357 96.3623 55.9322 96.4222C55.8773 97.2702 55.7116 98.0961 55.4502 98.9037C53.9745 103.48 49.4952 106.57 44.4674 106.106C42.2604 105.903 40.2856 105.095 38.6215 103.63C35.8034 101.149 34.6151 98.0109 35.0453 94.2926C35.2832 92.2443 36.1148 90.4276 37.467 88.8616C39.1013 86.9689 41.1567 85.7969 43.6239 85.3569C44.0119 85.2881 44.4057 85.2473 44.7976 85.1933C45.2085 85.1918 45.6193 85.1902 46.0283 85.1886C46.2986 85.2194 46.5707 85.2445 46.8391 85.2828C48.8945 85.5687 50.7249 86.3645 52.2966 87.7208C54.1846 89.3511 55.3556 91.3958 55.7928 93.8495C55.8619 94.2366 55.9028 94.6295 55.9568 95.0185L55.9606 95.0185Z" fill="white"/>
<path d="M45.0618 106.771C44.7035 106.771 44.3397 106.754 43.9758 106.719C41.6397 106.493 39.5964 105.619 37.9059 104.119C35.0044 101.546 33.7691 98.2808 34.2319 94.4183C34.4838 92.3232 35.3384 90.4255 36.7733 88.7788C38.4769 86.8252 40.632 85.6084 43.1828 85.1656C43.4589 85.1172 43.7351 85.0837 44.0019 85.0502C44.1232 85.0354 44.2464 85.0205 44.3677 85.0037L44.4292 85L45.7093 85.0037L45.9649 85.0335C46.1534 85.054 46.34 85.0744 46.5284 85.1023C48.691 85.4112 50.5943 86.2708 52.1878 87.6569C54.1396 89.3538 55.3524 91.5009 55.7947 94.035C55.8432 94.3103 55.8768 94.5876 55.9104 94.8536C55.9253 94.9746 55.9402 95.0936 55.957 95.2146L55.9607 95.276L55.9514 96.5858C55.9458 96.61 55.9402 96.6361 55.9346 96.6603C55.9309 96.6751 55.9271 96.6919 55.9253 96.7068C55.8674 97.5571 55.6958 98.4241 55.4159 99.2818C53.9362 103.81 49.7695 106.771 45.0618 106.771ZM44.461 85.9303C44.3453 85.9452 44.2314 85.9601 44.1158 85.9731C43.8471 86.0066 43.5952 86.0382 43.3414 86.081C41.009 86.4866 39.0348 87.5992 37.4749 89.3891C36.165 90.8925 35.385 92.6209 35.1555 94.528C34.7301 98.0706 35.8646 101.064 38.5235 103.423C40.0629 104.789 41.927 105.585 44.0635 105.792C48.7657 106.242 53.0704 103.448 54.5277 98.9934C54.7833 98.2101 54.9401 97.4175 54.9942 96.6398C54.9998 96.5616 55.0147 96.4947 55.0259 96.4463V95.3058C55.011 95.1923 54.996 95.0788 54.983 94.9653C54.9494 94.6973 54.9177 94.4443 54.8748 94.1913C54.4698 91.873 53.3596 89.9082 51.5739 88.3546C50.1185 87.0894 48.3757 86.3024 46.3941 86.0196C46.2168 85.9936 46.0395 85.9749 45.8604 85.9545L45.6272 85.9284H44.4591L44.461 85.9303Z" fill="#008285"/>
<path d="M45.2655 98.4122C44.1808 99.497 43.1259 100.552 42.068 101.607C41.5182 102.158 40.9714 102.716 40.4098 103.255C39.7947 103.848 38.9596 103.854 38.4039 103.291C37.8542 102.733 37.869 101.924 38.4396 101.311C38.505 101.24 38.5763 101.171 38.6446 101.103C40.1067 99.6452 41.5688 98.184 43.0338 96.7258C43.117 96.6429 43.218 96.5777 43.3309 96.4887C43.2061 96.3554 43.1289 96.2694 43.0486 96.1864C41.5331 94.672 40.0116 93.1634 38.499 91.646C37.8096 90.9524 37.8393 90.0159 38.5585 89.4735C39.0428 89.106 39.7025 89.0971 40.1929 89.4587C40.3236 89.5535 40.4395 89.6691 40.5554 89.7818C42.0353 91.2547 43.5122 92.7307 44.9891 94.2066C45.0723 94.2896 45.1348 94.3963 45.2269 94.5178C45.3636 94.3904 45.4468 94.3133 45.53 94.2333C47.0485 92.7218 48.5611 91.2073 50.0826 89.6958C50.769 89.0141 51.6873 89.029 52.24 89.7195C52.6382 90.2174 52.6531 90.8902 52.2667 91.4C52.1746 91.5185 52.0706 91.6282 51.9636 91.7349C50.4867 93.2108 49.0068 94.6838 47.5269 96.1568C47.4437 96.2398 47.3427 96.308 47.2209 96.4058C47.3338 96.5273 47.4081 96.6132 47.4913 96.6932C49.0068 98.2077 50.5224 99.7192 52.0409 101.234C52.4242 101.616 52.6382 102.055 52.5134 102.606C52.2846 103.623 51.1167 104.034 50.2936 103.385C50.1836 103.299 50.0826 103.199 49.9845 103.101C48.5046 101.628 47.0277 100.152 45.5508 98.676C45.4676 98.593 45.3814 98.516 45.2685 98.4063L45.2655 98.4122Z" fill="#008285"/>
</g>
<defs>
<clipPath id="clip0_1992_3">
<rect width="54.0392" height="40.4312" fill="white" transform="translate(4 4.14679)"/>
</clipPath>
<clipPath id="clip1_1992_3">
<rect width="54.0392" height="43.5413" fill="white" transform="translate(4 63.0551)"/>
</clipPath>
</defs>
</svg>
