<?xml version="1.0" encoding="utf-8"?>
<!-- Generator: Adobe Illustrator 27.0.0, SVG Export Plug-In . SVG Version: 6.00 Build 0)  -->
<svg version="1.1" id="Layer_1" xmlns="http://www.w3.org/2000/svg" xmlns:xlink="http://www.w3.org/1999/xlink" x="0px" y="0px"
	 viewBox="0 0 46 95" style="enable-background:new 0 0 46 95;" xml:space="preserve">
<style type="text/css">
	.st0{fill:#008285;}
	.st1{clip-path:url(#SVGID_00000083067669969180596840000010660402077245417386_);}
	.st2{fill:#FFFFFF;}
	.st3{clip-path:url(#SVGID_00000094597952587803635430000018417583252972331905_);}
</style>
<path class="st0" d="M46,45.3c-0.3,0.2-0.5,0.5-0.8,0.7c-0.8,0.4-1.6-0.2-1.6-1.2c0-1.3,0-2.6,0-3.9c0-0.6,0-1.2-0.2-1.8
	c-0.4-1.5-1.7-2.5-3.3-2.5c-4.8,0-9.6,0-14.4,0c-1.9,0-3.4,1.5-3.4,3.4c0,1.6,0,3.1,0,4.7c0,0.8-0.4,1.3-1.1,1.4
	c-0.6,0-1.3-0.4-1.3-1c0-2.1-0.1-4.2,0.2-6.3c0.4-2.7,2.8-4.5,5.6-4.6c4.9-0.1,9.7-0.1,14.6,0c2.8,0,5.1,2.1,5.7,4.8
	c0,0.1,0.1,0.2,0.1,0.2L46,45.3L46,45.3z"/>
<path class="st0" d="M25.8,25.7c0-3.9,3.2-7.1,7.1-7.2c3.9,0,7.2,3.2,7.2,7.1c0,3.9-3.2,7.1-7.1,7.2C29.1,32.8,25.8,29.6,25.8,25.7
	L25.8,25.7z"/>
<g>
	<defs>
		<rect id="SVGID_1_" width="26.3" height="26.3"/>
	</defs>
	<clipPath id="SVGID_00000085945940918644498850000010245266269927243665_">
		<use xlink:href="#SVGID_1_"  style="overflow:visible;"/>
	</clipPath>
	<g style="clip-path:url(#SVGID_00000085945940918644498850000010245266269927243665_);">
		<path class="st0" d="M26.3,2.4v15.9c0,0.2-0.1,0.3-0.1,0.5c-0.4,1.2-1.5,2-2.8,2c-2.1,0-4.1,0-6.2,0c-0.2,0-0.3,0-0.3,0.2
			c-0.6,1.3-1.3,2.6-1.9,3.9c-0.3,0.7-0.7,1.2-1.4,1.4h-0.6c-0.7-0.2-1.1-0.8-1.4-1.4c-0.6-1.3-1.3-2.5-1.9-3.8
			c-0.1-0.2-0.2-0.3-0.4-0.3c-2,0-4.1,0-6.1,0c-1.9,0-3-1.5-3-3c0-5,0-10,0-15c0-1.3,0.9-2.4,2.1-2.7C2.2,0.1,2.3,0,2.4,0
			c7.2,0,14.3,0,21.5,0c0,0,0.1,0,0.1,0.1c0.9,0.2,1.6,0.7,2,1.6C26.1,1.9,26.2,2.2,26.3,2.4L26.3,2.4z M15.6,7.5c0-0.6,0-1.2,0-1.7
			c0-1.4-1.1-2.5-2.4-2.5c-1.3,0-2.4,1.1-2.4,2.5c0,1.2,0,2.3,0,3.5c0,1.4,1.1,2.4,2.4,2.4c1.3,0,2.4-1.1,2.4-2.4
			C15.6,8.7,15.6,8.1,15.6,7.5L15.6,7.5z M13.2,18.3c1.3,0,2.4-1.1,2.4-2.4c0-1.3-1.1-2.4-2.4-2.4c-1.3,0-2.4,1.1-2.4,2.4
			C10.7,17.2,11.8,18.3,13.2,18.3L13.2,18.3z"/>
	</g>
</g>
<path class="st0" d="M21.1,40.8c0-2.8,2.2-5,5-5H40c2.8,0,5,2.2,5,5v5.4H21.1V40.8z"/>
<path class="st2" d="M46,93.3c-0.3,0.2-0.5,0.5-0.8,0.7c-0.8,0.4-1.6-0.2-1.6-1.2c0-1.3,0-2.6,0-3.9c0-0.6,0-1.2-0.2-1.8
	c-0.4-1.5-1.7-2.5-3.3-2.5c-4.8,0-9.6,0-14.4,0c-1.9,0-3.4,1.5-3.4,3.4c0,1.6,0,3.1,0,4.7c0,0.8-0.4,1.3-1.1,1.4
	c-0.6,0-1.3-0.4-1.3-1c0-2.1-0.1-4.2,0.2-6.3c0.4-2.7,2.8-4.5,5.6-4.6c4.9-0.1,9.7-0.1,14.6,0c2.8,0,5.1,2.1,5.7,4.8
	c0,0.1,0.1,0.2,0.1,0.2L46,93.3L46,93.3z"/>
<path class="st2" d="M25.8,73.7c0-3.9,3.2-7.1,7.1-7.2c3.9,0,7.2,3.2,7.2,7.1c0,3.9-3.2,7.1-7.1,7.2C29.1,80.8,25.8,77.6,25.8,73.7
	L25.8,73.7z"/>
<g>
	<defs>
		<rect id="SVGID_00000062912880045500031620000001309978965197652864_" y="48" width="26.3" height="26.3"/>
	</defs>
	<clipPath id="SVGID_00000168096455798307107180000008906874197700990106_">
		<use xlink:href="#SVGID_00000062912880045500031620000001309978965197652864_"  style="overflow:visible;"/>
	</clipPath>
	<g style="clip-path:url(#SVGID_00000168096455798307107180000008906874197700990106_);">
		<path class="st2" d="M26.3,50.4v15.9c0,0.2-0.1,0.3-0.1,0.5c-0.4,1.2-1.5,2-2.8,2c-2.1,0-4.1,0-6.2,0c-0.2,0-0.3,0-0.3,0.2
			c-0.6,1.3-1.3,2.6-1.9,3.9c-0.3,0.7-0.7,1.2-1.4,1.4h-0.6c-0.7-0.2-1.1-0.8-1.4-1.4c-0.6-1.3-1.3-2.5-1.9-3.8
			c-0.1-0.2-0.2-0.3-0.4-0.3c-2,0-4.1,0-6.1,0c-1.9,0-3-1.5-3-3c0-5,0-10,0-15c0-1.3,0.9-2.4,2.1-2.7c0.1,0,0.2-0.1,0.3-0.1
			c7.2,0,14.3,0,21.5,0c0,0,0.1,0,0.1,0.1c0.9,0.2,1.6,0.7,2,1.6C26.1,49.9,26.2,50.2,26.3,50.4L26.3,50.4z M15.6,55.5
			c0-0.6,0-1.2,0-1.7c0-1.4-1.1-2.5-2.4-2.5c-1.3,0-2.4,1.1-2.4,2.5c0,1.2,0,2.3,0,3.5c0,1.4,1.1,2.4,2.4,2.4c1.3,0,2.4-1.1,2.4-2.4
			C15.6,56.7,15.6,56.1,15.6,55.5L15.6,55.5z M13.2,66.3c1.3,0,2.4-1.1,2.4-2.4c0-1.3-1.1-2.4-2.4-2.4c-1.3,0-2.4,1.1-2.4,2.4
			C10.7,65.2,11.8,66.3,13.2,66.3L13.2,66.3z"/>
	</g>
</g>
<path class="st2" d="M21.1,88.8c0-2.8,2.2-5,5-5H40c2.8,0,5,2.2,5,5v5.4H21.1V88.8z"/>
</svg>
