<svg width="60" height="105" viewBox="0 0 60 105" fill="none" xmlns="http://www.w3.org/2000/svg">
<path d="M13 23.7574C13.0977 23.3512 13.1725 22.9386 13.2966 22.5406C13.5896 21.6032 14.0834 20.7835 14.7826 20.0852C18.5285 16.3436 22.269 12.5957 26.0158 8.85505C28.4866 6.38866 32.4799 6.37954 34.9489 8.84044C38.6748 12.5537 42.3952 16.2743 46.1091 19.9994C48.6265 22.5242 48.6311 26.4885 46.1192 29.0078C42.4134 32.7256 38.6939 36.4298 34.9873 40.1467C33.9869 41.1499 32.7948 41.7468 31.3947 41.9385C31.3417 41.9458 31.2924 41.9796 31.2413 42.0006H29.738C29.6869 41.9796 29.6376 41.9458 29.5856 41.9385C28.1873 41.7459 26.9961 41.1499 25.9967 40.1485C22.2535 36.3969 18.503 32.6517 14.7561 28.9038C14.0935 28.2411 13.6125 27.4643 13.3341 26.5706C13.2008 26.1407 13.1104 25.698 13 25.2608C13 24.7597 13 24.2585 13 23.7574ZM15.0464 24.5004C15.0792 25.6551 15.448 26.6829 16.2923 27.5263C20.0063 31.2341 23.7139 34.9492 27.4279 38.6579C29.1548 40.3822 31.8145 40.3922 33.5433 38.6689C37.2436 34.9793 40.9384 31.2843 44.6277 27.5839C46.382 25.8249 46.3729 23.1796 44.615 21.4188C40.9229 17.7211 37.2281 14.0261 33.5296 10.3338C31.8264 8.63324 29.1457 8.64145 27.4379 10.3475C23.7257 14.0571 20.0172 17.7713 16.3023 21.4781C15.4672 22.3115 15.0893 23.3238 15.0455 24.5004H15.0464Z" fill="#10898C"/>
<path d="M31.6564 24.2585C31.6564 23.2481 31.6509 22.2376 31.6582 21.2262C31.6618 20.7059 32.016 20.2869 32.4924 20.2057C33.0118 20.1181 33.4901 20.3883 33.6516 20.8803C33.6964 21.0172 33.7082 21.1696 33.7091 21.3157C33.7128 23.4334 33.7128 25.5501 33.711 27.6678C33.711 28.2538 33.4581 28.6427 33.0008 28.786C32.5235 28.9366 32.0844 28.755 31.7522 28.2584C31.0311 27.1804 30.3146 26.1006 29.5954 25.0216C29.5297 24.923 29.4557 24.8299 29.3261 24.6529C29.3261 24.8591 29.3261 24.9678 29.3261 25.0755C29.3261 25.9865 29.3352 26.8974 29.3215 27.8075C29.3124 28.4063 28.8843 28.8134 28.3011 28.8161C27.7087 28.8198 27.2797 28.4264 27.277 27.8203C27.2669 25.6122 27.2688 23.4032 27.2761 21.1952C27.2779 20.726 27.5782 20.3454 27.9953 20.224C28.4353 20.0952 28.8853 20.2504 29.1609 20.6575C29.9057 21.7602 30.6396 22.8702 31.378 23.9774C31.4464 24.0796 31.5167 24.18 31.5861 24.2804C31.6098 24.2722 31.6335 24.264 31.6573 24.2558L31.6564 24.2585Z" fill="#10898C"/>
<path d="M35.4919 24.4968C35.4919 23.4608 35.49 22.4247 35.4919 21.3887C35.4937 20.5955 35.8953 20.1601 36.6866 20.1966C37.3055 20.2258 37.9462 20.2705 38.5313 20.4531C40.3039 21.0062 41.412 22.6867 41.3727 24.5899C41.3216 27.0581 39.4432 29.0754 36.39 28.8143C35.8506 28.7687 35.4964 28.315 35.4928 27.708C35.4873 26.6373 35.4909 25.5675 35.4909 24.4968H35.4919ZM37.593 26.6811C38.6107 26.5113 39.3281 25.5921 39.3218 24.4913C39.3154 23.4069 38.5925 22.4968 37.593 22.3389V26.682V26.6811Z" fill="#10898C"/>
<path d="M22.755 22.2495V23.4864C23.2333 23.4864 23.697 23.4855 24.1597 23.4864C24.8562 23.4882 25.3016 23.898 25.2915 24.5251C25.2815 25.1376 24.8416 25.5292 24.1606 25.5329C23.717 25.5356 23.2734 25.5374 22.8299 25.5411C22.8098 25.5411 22.7906 25.5612 22.755 25.5803V26.7688C23.3958 26.7688 24.0292 26.7651 24.6627 26.7706C24.8653 26.7724 25.0752 26.7734 25.2696 26.8227C25.7543 26.945 26.0601 27.3859 26.0227 27.8642C25.9807 28.4009 25.621 28.8016 25.0862 28.8135C23.9379 28.8381 22.7879 28.8409 21.6396 28.818C21.0409 28.8062 20.6666 28.3416 20.6648 27.6843C20.6621 26.0112 20.6639 24.3389 20.6639 22.6658C20.6639 22.2103 20.6593 21.7557 20.6648 21.3002C20.673 20.6302 21.0792 20.1976 21.74 20.1893C22.8098 20.1757 23.8795 20.1757 24.9493 20.1893C25.6046 20.1976 26.0318 20.6229 26.0263 21.2181C26.0208 21.8178 25.5645 22.2413 24.9027 22.2468C24.199 22.2523 23.4952 22.2477 22.7541 22.2477L22.755 22.2495Z" fill="#10898C"/>
<path d="M13 71.7574C13.0977 71.3512 13.1725 70.9386 13.2966 70.5406C13.5896 69.6032 14.0834 68.7835 14.7826 68.0852C18.5285 64.3436 22.269 60.5957 26.0158 56.855C28.4866 54.3887 32.4799 54.3795 34.9489 56.8404C38.6748 60.5537 42.3952 64.2743 46.1091 67.9994C48.6265 70.5242 48.6311 74.4885 46.1192 77.0078C42.4134 80.7256 38.6939 84.4298 34.9873 88.1467C33.9869 89.1499 32.7948 89.7468 31.3947 89.9385C31.3417 89.9458 31.2924 89.9796 31.2413 90.0006H29.738C29.6869 89.9796 29.6376 89.9458 29.5856 89.9385C28.1873 89.7459 26.9961 89.1499 25.9967 88.1485C22.2535 84.3969 18.503 80.6517 14.7561 76.9038C14.0935 76.2411 13.6125 75.4643 13.3341 74.5706C13.2008 74.1407 13.1104 73.698 13 73.2608C13 72.7597 13 72.2585 13 71.7574ZM15.0464 72.5004C15.0792 73.6551 15.448 74.6829 16.2923 75.5263C20.0063 79.2341 23.7139 82.9492 27.4279 86.6579C29.1548 88.3822 31.8145 88.3922 33.5433 86.6689C37.2436 82.9793 40.9384 79.2843 44.6277 75.5839C46.382 73.8249 46.3729 71.1796 44.615 69.4188C40.9229 65.7211 37.2281 62.0261 33.5296 58.3338C31.8264 56.6332 29.1457 56.6415 27.4379 58.3475C23.7257 62.0571 20.0172 65.7713 16.3023 69.4781C15.4672 70.3115 15.0893 71.3238 15.0455 72.5004H15.0464Z" fill="white"/>
<path d="M31.6564 72.2585C31.6564 71.2481 31.6509 70.2376 31.6582 69.2262C31.6618 68.7059 32.016 68.2869 32.4924 68.2057C33.0118 68.1181 33.4901 68.3883 33.6516 68.8803C33.6964 69.0172 33.7082 69.1696 33.7091 69.3157C33.7128 71.4334 33.7128 73.5501 33.711 75.6678C33.711 76.2538 33.4581 76.6427 33.0008 76.786C32.5235 76.9366 32.0844 76.755 31.7522 76.2584C31.0311 75.1804 30.3146 74.1006 29.5954 73.0216C29.5297 72.923 29.4557 72.8299 29.3261 72.6529C29.3261 72.8591 29.3261 72.9678 29.3261 73.0755C29.3261 73.9865 29.3352 74.8974 29.3215 75.8075C29.3124 76.4063 28.8843 76.8134 28.3011 76.8161C27.7087 76.8198 27.2797 76.4264 27.277 75.8203C27.2669 73.6122 27.2688 71.4032 27.2761 69.1952C27.2779 68.726 27.5782 68.3454 27.9953 68.224C28.4353 68.0952 28.8853 68.2504 29.1609 68.6575C29.9057 69.7602 30.6396 70.8702 31.378 71.9774C31.4464 72.0796 31.5167 72.18 31.5861 72.2804C31.6098 72.2722 31.6335 72.264 31.6573 72.2558L31.6564 72.2585Z" fill="white"/>
<path d="M35.4919 72.4968C35.4919 71.4608 35.49 70.4247 35.4919 69.3887C35.4937 68.5955 35.8953 68.1601 36.6866 68.1966C37.3055 68.2258 37.9462 68.2705 38.5313 68.4531C40.3039 69.0062 41.412 70.6867 41.3727 72.5899C41.3216 75.0581 39.4432 77.0754 36.39 76.8143C35.8506 76.7687 35.4964 76.315 35.4928 75.708C35.4873 74.6373 35.4909 73.5675 35.4909 72.4968H35.4919ZM37.593 74.6811C38.6107 74.5113 39.3281 73.5921 39.3218 72.4913C39.3154 71.4069 38.5925 70.4968 37.593 70.3389V74.682V74.6811Z" fill="white"/>
<path d="M22.755 70.2495V71.4864C23.2333 71.4864 23.697 71.4855 24.1597 71.4864C24.8562 71.4882 25.3016 71.898 25.2915 72.5251C25.2815 73.1376 24.8416 73.5292 24.1606 73.5329C23.717 73.5356 23.2734 73.5374 22.8299 73.5411C22.8098 73.5411 22.7906 73.5612 22.755 73.5803V74.7688C23.3958 74.7688 24.0292 74.7651 24.6627 74.7706C24.8653 74.7724 25.0752 74.7734 25.2696 74.8227C25.7543 74.945 26.0601 75.3859 26.0227 75.8642C25.9807 76.4009 25.621 76.8016 25.0862 76.8135C23.9379 76.8381 22.7879 76.8409 21.6396 76.818C21.0409 76.8062 20.6666 76.3416 20.6648 75.6843C20.6621 74.0112 20.6639 72.3389 20.6639 70.6658C20.6639 70.2103 20.6593 69.7557 20.6648 69.3002C20.673 68.6302 21.0792 68.1976 21.74 68.1893C22.8098 68.1757 23.8795 68.1757 24.9493 68.1893C25.6046 68.1976 26.0318 68.6229 26.0263 69.2181C26.0208 69.8178 25.5645 70.2413 24.9027 70.2468C24.199 70.2523 23.4952 70.2477 22.7541 70.2477L22.755 70.2495Z" fill="white"/>
</svg>
