<?xml version="1.0" encoding="utf-8"?>
<!-- Generator: Adobe Illustrator 27.0.0, SVG Export Plug-In . SVG Version: 6.00 Build 0)  -->
<svg version="1.1" id="Layer_1" xmlns="http://www.w3.org/2000/svg" xmlns:xlink="http://www.w3.org/1999/xlink" x="0px" y="0px"
	 viewBox="0 0 51 95" style="enable-background:new 0 0 51 95;" xml:space="preserve">
<style type="text/css">
	.st0{fill:#274964;}
	.st1{fill:#FFFFFF;}
</style>
<g>
	<path class="st0" d="M19.1,0c1.2,0.2,2.1,0.8,2.9,1.6c0.8,0.8,1.9,0.8,2.9,0.5c0.6-0.2,1.1-0.4,1.7-0.7C27,1.2,27.4,1,27.8,0.8
		c1.4-0.6,2.6,0.2,2.6,1.7c0,1-0.3,1.9-0.6,2.8c-0.7,1.9-1.8,3.6-2.9,5.3c-0.2,0.3-0.4,0.6-0.7,1c0.4,0,0.7,0,1,0.1
		c1.2,0.3,2.1,1.4,2.1,2.7c0,1.3-1,2.4-2.3,2.6c-0.3,0-0.5,0.1-0.8,0.1c-5,0-10,0-14.9,0c-0.4,0-0.6,0.1-0.9,0.4
		c-0.9,1-1.8,2-2.7,3.1c-0.3,0.3-0.6,0.5-1,0.3c-0.5-0.2-0.6-0.8-0.3-1.2c0.7-0.9,1.4-1.8,2.2-2.7c0.1-0.2,0.3-0.2,0-0.4
		c-1-0.8-1.3-1.9-1-3c0.4-1.1,1.4-1.8,2.6-1.8c0.1,0,0.2,0,0.3,0c0-0.2-0.2-0.3-0.3-0.5C9.2,9.2,8,7.4,7.2,5.3
		c-0.4-1-0.8-2.1-0.6-3.2c0.2-1.2,1.2-1.8,2.3-1.4c0.5,0.2,1,0.4,1.4,0.7c1,0.6,2,1,3.1,0.9C14,2.2,14.6,2,15,1.6
		c0.8-0.8,1.8-1.4,3-1.6C18.3,0,18.7,0,19.1,0z M18.5,11.6c0.6,0,1.2,0,1.8,0c0.4,0,0.5-0.1,0.5-0.5c0-1.1,0-2.2,0-3.3
		c0-0.3,0.1-0.6,0.4-0.8c0.5-0.3,1.2,0.1,1.2,0.8c0,1.1,0,2.2,0,3.3c0,0.3,0.1,0.5,0.4,0.5c0.4,0,0.8,0,1.1,0c0.3,0,0.4-0.1,0.6-0.3
		c0.8-1.2,1.7-2.4,2.4-3.7c0.8-1.3,1.5-2.7,1.9-4.2c0.1-0.3,0.2-0.7,0.1-1c0-0.2-0.2-0.3-0.4-0.2c-0.3,0.1-0.6,0.3-0.9,0.5
		c-0.6,0.4-1.3,0.7-2,0.9c-1.8,0.5-3.5,0.3-4.9-1c-1.4-1.3-3.1-1.3-4.5,0c-0.6,0.6-1.3,1-2.1,1.2c-1.6,0.4-3.1-0.1-4.5-0.9
		C9.3,2.6,9,2.4,8.6,2.2C8.1,2.1,8,2.1,8,2.6c0,0.6,0.2,1.2,0.5,1.8c1,2.4,2.4,4.5,3.8,6.6c0.3,0.4,0.6,0.6,1,0.5
		c0.4,0,0.9,0.1,1.2-0.1c0.3-0.2,0.1-0.8,0.1-1.2c0-0.9,0-1.7,0-2.6c0-0.4,0.2-0.6,0.5-0.7c0.3-0.1,0.6,0,0.8,0.2
		c0.2,0.2,0.2,0.5,0.2,0.8c0,1.1,0,2.1,0,3.2c0,0.4,0.1,0.5,0.5,0.4C17.2,11.6,17.9,11.6,18.5,11.6z M18.5,13.1c-2.6,0-5.2,0-7.7,0
		c-0.1,0-0.3,0-0.4,0c-0.7,0-1.1,0.5-1.1,1.1c0,0.6,0.4,1.1,1.1,1.2c0.1,0,0.3,0,0.5,0c5.2,0,10.3,0,15.5,0c0.2,0,0.5,0,0.7-0.1
		c0.4-0.1,0.7-0.4,0.8-0.8c0.2-0.8-0.3-1.5-1.2-1.5C23.8,13.1,21.2,13.1,18.5,13.1z"/>
	<path class="st0" d="M48.6,44.4c-0.3,0.9-0.8,1.6-1.8,1.8c-0.2,0-0.4,0.1-0.7,0.1c-5.5,0-11.1,0-16.6,0c-1.5,0-2.5-1-2.5-2.5
		c0-7.3,0-14.6,0-22c0-1.6,1-2.5,2.5-2.5c5.4,0,10.8,0,16.2,0c1.4,0,2.5,0.5,2.9,1.9C48.6,28.9,48.6,36.6,48.6,44.4z M47.1,32.8
		c0-3.6,0-7.3,0-10.9c0-0.9-0.2-1.1-1.1-1.1c-5.4,0-10.9,0-16.3,0c-0.9,0-1.1,0.2-1.1,1.1c0,7.2,0,14.5,0,21.7
		c0,0.9,0.2,1.1,1.1,1.1c5.4,0,10.9,0,16.3,0c0.9,0,1.1-0.2,1.1-1.1C47.1,40,47.1,36.4,47.1,32.8z"/>
	<path class="st0" d="M2.3,30.3c0.2-0.9,0.2-1.8,0.4-2.8c0.3-1.2,0.7-2.4,1.2-3.6c0.3-0.6,0.7-0.9,1.1-0.7c0.5,0.2,0.6,0.6,0.3,1.3
		c-1.6,3.7-1.9,7.5-1,11.4c1,4.2,3.6,6.9,7.8,8c4.1,1.1,8.2,1.1,12.4,0.2c0.4-0.1,0.8,0,1,0.4c0.3,0.5,0,1-0.6,1.1
		c-2.6,0.7-5.3,0.8-8,0.7c-2.4-0.1-4.7-0.5-6.9-1.4c-4.1-1.7-6.4-4.9-7.2-9.2c-0.2-0.8-0.2-1.7-0.4-2.5C2.3,32.1,2.3,31.2,2.3,30.3z
		"/>
	<path class="st0" d="M37.8,29.3c-1.7,0-3.5,0-5.2,0c-1.1,0-1.7-0.6-1.7-1.7c0-0.9,0-1.9,0-2.8c0-1,0.6-1.6,1.6-1.6
		c3.5,0,7.1,0,10.6,0c1,0,1.6,0.6,1.7,1.6c0,1,0,2,0,2.9c0,1-0.6,1.6-1.6,1.6C41.4,29.3,39.6,29.3,37.8,29.3z M37.8,27.8
		c1.7,0,3.3,0,5,0c0.3,0,0.4-0.1,0.4-0.4c0-0.8,0-1.5,0-2.3c0-0.3-0.1-0.4-0.3-0.4c-3.4,0-6.8,0-10.1,0c-0.3,0-0.3,0.1-0.3,0.3
		c0,0.8,0,1.5,0,2.3c0,0.4,0.1,0.5,0.5,0.5C34.5,27.7,36.2,27.8,37.8,27.8z"/>
	<path class="st0" d="M32.8,34.7c0.4,0,0.7,0,1.1,0c0.5,0,0.8,0.3,0.8,0.8c0,0.4-0.3,0.7-0.8,0.7c-0.8,0-1.5,0-2.3,0
		c-0.5,0-0.8-0.3-0.8-0.8c0-0.4,0.3-0.7,0.8-0.8C32,34.7,32.4,34.7,32.8,34.7z"/>
	<path class="st0" d="M38.2,33.2c-0.4,0-0.7,0-1.1,0c-0.5,0-0.8-0.3-0.8-0.8c0-0.4,0.3-0.8,0.8-0.8c0.7,0,1.5,0,2.2,0
		c0.5,0,0.8,0.3,0.8,0.7c0,0.4-0.3,0.8-0.8,0.8C38.9,33.2,38.6,33.2,38.2,33.2z"/>
	<path class="st0" d="M43.6,39.3c-0.4,0-0.8,0-1.1,0c-0.5,0-0.8-0.3-0.8-0.7c0-0.4,0.3-0.8,0.8-0.8c0.8,0,1.5,0,2.3,0
		c0.5,0,0.8,0.4,0.8,0.8c0,0.4-0.3,0.7-0.8,0.8C44.4,39.3,44,39.3,43.6,39.3z"/>
	<path class="st0" d="M43.6,42.4c-0.4,0-0.8,0-1.1,0c-0.4,0-0.7-0.3-0.8-0.7c0-0.4,0.3-0.8,0.7-0.8c0.8,0,1.7,0,2.5,0
		c0.4,0,0.7,0.4,0.7,0.8c0,0.4-0.3,0.7-0.8,0.8c0,0-0.1,0-0.1,0C44.3,42.4,43.9,42.4,43.6,42.4C43.6,42.4,43.6,42.4,43.6,42.4z"/>
	<path class="st0" d="M43.6,31.6c0.4,0,0.8,0,1.1,0c0.5,0,0.8,0.4,0.8,0.8c0,0.4-0.3,0.7-0.8,0.8c-0.8,0-1.6,0-2.4,0
		c-0.5,0-0.8-0.4-0.8-0.8c0-0.4,0.3-0.7,0.8-0.7C42.8,31.6,43.2,31.6,43.6,31.6z"/>
	<path class="st0" d="M32.8,31.6c0.4,0,0.8,0,1.2,0c0.4,0,0.7,0.3,0.7,0.7c0,0.4-0.3,0.8-0.7,0.8c-0.8,0-1.6,0-2.4,0
		c-0.4,0-0.7-0.4-0.7-0.8c0-0.4,0.3-0.7,0.7-0.8C32,31.6,32.4,31.6,32.8,31.6z"/>
	<path class="st0" d="M38.2,36.2c-0.4,0-0.8,0-1.1,0c-0.5,0-0.8-0.3-0.8-0.8c0-0.4,0.3-0.8,0.8-0.8c0.8,0,1.5,0,2.3,0
		c0.5,0,0.8,0.4,0.8,0.8c0,0.4-0.3,0.7-0.8,0.7C39,36.3,38.6,36.2,38.2,36.2z"/>
	<path class="st0" d="M43.6,34.7c0.4,0,0.8,0,1.1,0c0.5,0,0.8,0.3,0.8,0.8c0,0.4-0.3,0.8-0.8,0.8c-0.8,0-1.5,0-2.3,0
		c-0.5,0-0.8-0.3-0.8-0.8c0-0.4,0.3-0.8,0.8-0.8C42.8,34.7,43.2,34.7,43.6,34.7z"/>
	<path class="st0" d="M38.2,39.3c-0.4,0-0.8,0-1.1,0c-0.5,0-0.8-0.3-0.8-0.7c0-0.4,0.3-0.8,0.7-0.8c0.8,0,1.6,0,2.4,0
		c0.5,0,0.8,0.4,0.7,0.8c0,0.4-0.3,0.7-0.8,0.7C39,39.3,38.6,39.3,38.2,39.3z"/>
	<path class="st0" d="M38.2,42.4c-0.4,0-0.8,0-1.1,0c-0.5,0-0.8-0.3-0.8-0.7c0-0.4,0.3-0.8,0.7-0.8c0.8,0,1.6,0,2.4,0
		c0.5,0,0.8,0.4,0.8,0.8c0,0.4-0.3,0.7-0.8,0.7C38.9,42.4,38.6,42.4,38.2,42.4C38.2,42.4,38.2,42.4,38.2,42.4z"/>
	<path class="st0" d="M32.8,39.3c-0.4,0-0.8,0-1.1,0c-0.5,0-0.8-0.3-0.8-0.7c0-0.4,0.3-0.8,0.7-0.8c0.8,0,1.6,0,2.4,0
		c0.5,0,0.8,0.4,0.7,0.8c0,0.4-0.3,0.7-0.8,0.7C33.5,39.3,33.1,39.3,32.8,39.3z"/>
	<path class="st0" d="M32.8,42.4c-0.4,0-0.8,0-1.2,0c-0.4,0-0.7-0.3-0.7-0.7c0-0.4,0.2-0.8,0.7-0.8c0.8,0,1.7,0,2.5,0
		c0.4,0,0.7,0.4,0.7,0.8c0,0.4-0.3,0.7-0.7,0.7c0,0-0.1,0-0.1,0C33.5,42.4,33.1,42.4,32.8,42.4C32.8,42.4,32.8,42.4,32.8,42.4z"/>
</g>
<g>
	<path class="st1" d="M19.1,49c1.2,0.2,2.1,0.8,2.9,1.6c0.8,0.8,1.9,0.8,2.9,0.5c0.6-0.2,1.1-0.4,1.7-0.7c0.4-0.2,0.8-0.5,1.2-0.6
		c1.4-0.6,2.6,0.2,2.6,1.7c0,1-0.3,1.9-0.6,2.8c-0.7,1.9-1.8,3.6-2.9,5.3c-0.2,0.3-0.4,0.6-0.7,1c0.4,0,0.7,0,1,0.1
		c1.2,0.3,2.1,1.4,2.1,2.7c0,1.3-1,2.4-2.3,2.6c-0.3,0-0.5,0.1-0.8,0.1c-5,0-10,0-14.9,0c-0.4,0-0.6,0.1-0.9,0.4
		c-0.9,1-1.8,2-2.7,3.1c-0.3,0.3-0.6,0.5-1,0.3c-0.5-0.2-0.6-0.8-0.3-1.2c0.7-0.9,1.4-1.8,2.2-2.7c0.1-0.2,0.3-0.2,0-0.4
		c-1-0.8-1.3-1.9-1-3c0.4-1.1,1.4-1.8,2.6-1.8c0.1,0,0.2,0,0.3,0c0-0.2-0.2-0.3-0.3-0.5c-1.3-1.8-2.4-3.7-3.3-5.8
		c-0.4-1-0.8-2.1-0.6-3.2c0.2-1.2,1.2-1.8,2.3-1.4c0.5,0.2,1,0.4,1.4,0.7c1,0.6,2,1,3.1,0.9c0.6,0,1.1-0.3,1.5-0.7
		c0.8-0.8,1.8-1.4,3-1.6C18.3,49,18.7,49,19.1,49z M18.5,60.6c0.6,0,1.2,0,1.8,0c0.4,0,0.5-0.1,0.5-0.5c0-1.1,0-2.2,0-3.3
		c0-0.3,0.1-0.6,0.4-0.8c0.5-0.3,1.2,0.1,1.2,0.8c0,1.1,0,2.2,0,3.3c0,0.3,0.1,0.5,0.4,0.5c0.4,0,0.8,0,1.1,0c0.3,0,0.4-0.1,0.6-0.3
		c0.8-1.2,1.7-2.4,2.4-3.7c0.8-1.3,1.5-2.7,1.9-4.2c0.1-0.3,0.2-0.7,0.1-1c0-0.2-0.2-0.3-0.4-0.2c-0.3,0.1-0.6,0.3-0.9,0.5
		c-0.6,0.4-1.3,0.7-2,0.9c-1.8,0.5-3.5,0.3-4.9-1c-1.4-1.3-3.1-1.3-4.5,0c-0.6,0.6-1.3,1-2.1,1.2c-1.6,0.4-3.1-0.1-4.5-0.9
		c-0.3-0.2-0.7-0.4-1-0.6C8.1,51.1,8,51.1,8,51.6c0,0.6,0.2,1.2,0.5,1.8c1,2.4,2.4,4.5,3.8,6.6c0.3,0.4,0.6,0.6,1,0.5
		c0.4,0,0.9,0.1,1.2-0.1c0.3-0.2,0.1-0.8,0.1-1.2c0-0.9,0-1.7,0-2.6c0-0.4,0.2-0.6,0.5-0.7c0.3-0.1,0.6,0,0.8,0.2
		c0.2,0.2,0.2,0.5,0.2,0.8c0,1.1,0,2.1,0,3.2c0,0.4,0.1,0.5,0.5,0.4C17.2,60.6,17.9,60.6,18.5,60.6z M18.5,62.1c-2.6,0-5.2,0-7.7,0
		c-0.1,0-0.3,0-0.4,0c-0.7,0-1.1,0.5-1.1,1.1c0,0.6,0.4,1.1,1.1,1.2c0.1,0,0.3,0,0.5,0c5.2,0,10.3,0,15.5,0c0.2,0,0.5,0,0.7-0.1
		c0.4-0.1,0.7-0.4,0.8-0.8c0.2-0.8-0.3-1.5-1.2-1.5C23.8,62.1,21.2,62.1,18.5,62.1z"/>
	<path class="st1" d="M48.6,93.4c-0.3,0.9-0.8,1.6-1.8,1.8c-0.2,0-0.4,0.1-0.7,0.1c-5.5,0-11.1,0-16.6,0c-1.5,0-2.5-1-2.5-2.5
		c0-7.3,0-14.6,0-22c0-1.6,1-2.5,2.5-2.5c5.4,0,10.8,0,16.2,0c1.4,0,2.5,0.5,2.9,1.9C48.6,77.9,48.6,85.6,48.6,93.4z M47.1,81.8
		c0-3.6,0-7.3,0-10.9c0-0.9-0.2-1.1-1.1-1.1c-5.4,0-10.9,0-16.3,0c-0.9,0-1.1,0.2-1.1,1.1c0,7.2,0,14.5,0,21.7
		c0,0.9,0.2,1.1,1.1,1.1c5.4,0,10.9,0,16.3,0c0.9,0,1.1-0.2,1.1-1.1C47.1,89,47.1,85.4,47.1,81.8z"/>
	<path class="st1" d="M2.3,79.3c0.2-0.9,0.2-1.8,0.4-2.8c0.3-1.2,0.7-2.4,1.2-3.6c0.3-0.6,0.7-0.9,1.1-0.7c0.5,0.2,0.6,0.6,0.3,1.3
		c-1.6,3.7-1.9,7.5-1,11.4c1,4.2,3.6,6.9,7.8,8c4.1,1.1,8.2,1.1,12.4,0.2c0.4-0.1,0.8,0,1,0.4c0.3,0.5,0,1-0.6,1.1
		c-2.6,0.7-5.3,0.8-8,0.7c-2.4-0.1-4.7-0.5-6.9-1.4c-4.1-1.7-6.4-4.9-7.2-9.2c-0.2-0.8-0.2-1.7-0.4-2.5C2.3,81.1,2.3,80.2,2.3,79.3z
		"/>
	<path class="st1" d="M37.8,78.3c-1.7,0-3.5,0-5.2,0c-1.1,0-1.7-0.6-1.7-1.7c0-0.9,0-1.9,0-2.8c0-1,0.6-1.6,1.6-1.6
		c3.5,0,7.1,0,10.6,0c1,0,1.6,0.6,1.7,1.6c0,1,0,2,0,2.9c0,1-0.6,1.6-1.6,1.6C41.4,78.3,39.6,78.3,37.8,78.3z M37.8,76.8
		c1.7,0,3.3,0,5,0c0.3,0,0.4-0.1,0.4-0.4c0-0.8,0-1.5,0-2.3c0-0.3-0.1-0.4-0.3-0.4c-3.4,0-6.8,0-10.1,0c-0.3,0-0.3,0.1-0.3,0.3
		c0,0.8,0,1.5,0,2.3c0,0.4,0.1,0.5,0.5,0.5C34.5,76.7,36.2,76.8,37.8,76.8z"/>
	<path class="st1" d="M32.8,83.7c0.4,0,0.7,0,1.1,0c0.5,0,0.8,0.3,0.8,0.8c0,0.4-0.3,0.7-0.8,0.7c-0.8,0-1.5,0-2.3,0
		c-0.5,0-0.8-0.3-0.8-0.8c0-0.4,0.3-0.7,0.8-0.8C32,83.7,32.4,83.7,32.8,83.7z"/>
	<path class="st1" d="M38.2,82.2c-0.4,0-0.7,0-1.1,0c-0.5,0-0.8-0.3-0.8-0.8c0-0.4,0.3-0.8,0.8-0.8c0.7,0,1.5,0,2.2,0
		c0.5,0,0.8,0.3,0.8,0.7c0,0.4-0.3,0.8-0.8,0.8C38.9,82.2,38.6,82.2,38.2,82.2z"/>
	<path class="st1" d="M43.6,88.3c-0.4,0-0.8,0-1.1,0c-0.5,0-0.8-0.3-0.8-0.7c0-0.4,0.3-0.8,0.8-0.8c0.8,0,1.5,0,2.3,0
		c0.5,0,0.8,0.4,0.8,0.8c0,0.4-0.3,0.7-0.8,0.8C44.4,88.3,44,88.3,43.6,88.3z"/>
	<path class="st1" d="M43.6,91.4c-0.4,0-0.8,0-1.1,0c-0.4,0-0.7-0.3-0.8-0.7c0-0.4,0.3-0.8,0.7-0.8c0.8,0,1.7,0,2.5,0
		c0.4,0,0.7,0.4,0.7,0.8c0,0.4-0.3,0.7-0.8,0.8c0,0-0.1,0-0.1,0C44.3,91.4,43.9,91.4,43.6,91.4C43.6,91.4,43.6,91.4,43.6,91.4z"/>
	<path class="st1" d="M43.6,80.6c0.4,0,0.8,0,1.1,0c0.5,0,0.8,0.4,0.8,0.8c0,0.4-0.3,0.7-0.8,0.8c-0.8,0-1.6,0-2.4,0
		c-0.5,0-0.8-0.4-0.8-0.8c0-0.4,0.3-0.7,0.8-0.7C42.8,80.6,43.2,80.6,43.6,80.6z"/>
	<path class="st1" d="M32.8,80.6c0.4,0,0.8,0,1.2,0c0.4,0,0.7,0.3,0.7,0.7c0,0.4-0.3,0.8-0.7,0.8c-0.8,0-1.6,0-2.4,0
		c-0.4,0-0.7-0.4-0.7-0.8c0-0.4,0.3-0.7,0.7-0.8C32,80.6,32.4,80.6,32.8,80.6z"/>
	<path class="st1" d="M38.2,85.2c-0.4,0-0.8,0-1.1,0c-0.5,0-0.8-0.3-0.8-0.8c0-0.4,0.3-0.8,0.8-0.8c0.8,0,1.5,0,2.3,0
		c0.5,0,0.8,0.4,0.8,0.8c0,0.4-0.3,0.7-0.8,0.7C39,85.3,38.6,85.2,38.2,85.2z"/>
	<path class="st1" d="M43.6,83.7c0.4,0,0.8,0,1.1,0c0.5,0,0.8,0.3,0.8,0.8c0,0.4-0.3,0.8-0.8,0.8c-0.8,0-1.5,0-2.3,0
		c-0.5,0-0.8-0.3-0.8-0.8c0-0.4,0.3-0.8,0.8-0.8C42.8,83.7,43.2,83.7,43.6,83.7z"/>
	<path class="st1" d="M38.2,88.3c-0.4,0-0.8,0-1.1,0c-0.5,0-0.8-0.3-0.8-0.7c0-0.4,0.3-0.8,0.7-0.8c0.8,0,1.6,0,2.4,0
		c0.5,0,0.8,0.4,0.7,0.8c0,0.4-0.3,0.7-0.8,0.7C39,88.3,38.6,88.3,38.2,88.3z"/>
	<path class="st1" d="M38.2,91.4c-0.4,0-0.8,0-1.1,0c-0.5,0-0.8-0.3-0.8-0.7c0-0.4,0.3-0.8,0.7-0.8c0.8,0,1.6,0,2.4,0
		c0.5,0,0.8,0.4,0.8,0.8c0,0.4-0.3,0.7-0.8,0.7C38.9,91.4,38.6,91.4,38.2,91.4C38.2,91.4,38.2,91.4,38.2,91.4z"/>
	<path class="st1" d="M32.8,88.3c-0.4,0-0.8,0-1.1,0c-0.5,0-0.8-0.3-0.8-0.7c0-0.4,0.3-0.8,0.7-0.8c0.8,0,1.6,0,2.4,0
		c0.5,0,0.8,0.4,0.7,0.8c0,0.4-0.3,0.7-0.8,0.7C33.5,88.3,33.1,88.3,32.8,88.3z"/>
	<path class="st1" d="M32.8,91.4c-0.4,0-0.8,0-1.2,0c-0.4,0-0.7-0.3-0.7-0.7c0-0.4,0.2-0.8,0.7-0.8c0.8,0,1.7,0,2.5,0
		c0.4,0,0.7,0.4,0.7,0.8c0,0.4-0.3,0.7-0.7,0.7c0,0-0.1,0-0.1,0C33.5,91.4,33.1,91.4,32.8,91.4C32.8,91.4,32.8,91.4,32.8,91.4z"/>
</g>
<g>
	<path class="st0" d="M17.6,22.4c1.4,0,2.6,0.3,3.7,1.2c0.6,0.5,1.2,1.1,0.5,1.9c-0.6,0.7-1.2,0.3-1.8-0.2c-1.2-1-3-1.2-4.1-0.5
		c-1.1,0.7-1.6,2.1-1.3,3.8c0.1,0.7,0.4,0.9,1.1,0.9c1.1,0,2.2,0,3.3,0c0.6,0,1.1,0.2,1.1,0.9c0,0.7-0.5,0.9-1.1,0.9
		c-0.1,0-0.3,0-0.4,0c-0.9,0-2.1-0.3-2.7,0.1c-0.7,0.5,0.2,1.6,0.1,2.4c-0.1,0.3,0,0.6-0.1,0.8c-0.8,1.5,0,1.8,1.3,2.1
		c1.9,0.4,3.6,1.1,5.5,0c0.4-0.3,1-0.2,1.2,0.4c0.2,0.6,0,1.1-0.5,1.4c-1.1,0.7-2.3,1-3.5,0.7c-1.3-0.3-2.5-0.5-3.7-0.8
		c-1.4-0.3-2.8-0.2-4.2,0.3c-0.6,0.2-1.2,0.4-1.4-0.4c-0.2-0.7,0.2-1.1,0.7-1.4c0.1,0,0.2-0.1,0.2-0.1c0.7-0.4,1.7-0.1,2-1.2
		c0.4-1.3,0.2-2.6-0.2-3.9c-0.2-0.7-0.8-0.5-1.2-0.5c-0.7,0-1.3-0.1-1.4-0.9c-0.1-0.8,0.5-0.9,1.2-0.9c1,0,0.5-0.7,0.5-1.1
		C11.9,24.8,14.1,22.3,17.6,22.4z"/>
</g>
<g>
	<path class="st1" d="M17.6,72.4c1.4,0,2.6,0.3,3.7,1.2c0.6,0.5,1.2,1.1,0.5,1.9c-0.6,0.7-1.2,0.3-1.8-0.2c-1.2-1-3-1.2-4.1-0.5
		c-1.1,0.7-1.6,2.1-1.3,3.8c0.1,0.7,0.4,0.9,1.1,0.9c1.1,0,2.2,0,3.3,0c0.6,0,1.1,0.2,1.1,0.9c0,0.7-0.5,0.9-1.1,0.9
		c-0.1,0-0.3,0-0.4,0c-0.9,0-2.1-0.3-2.7,0.1c-0.7,0.5,0.2,1.6,0.1,2.4c-0.1,0.3,0,0.6-0.1,0.8c-0.8,1.5,0,1.8,1.3,2.1
		c1.9,0.4,3.6,1.1,5.5,0c0.4-0.3,1-0.2,1.2,0.4c0.2,0.6,0,1.1-0.5,1.4c-1.1,0.7-2.3,1-3.5,0.7c-1.3-0.3-2.5-0.5-3.7-0.8
		c-1.4-0.3-2.8-0.2-4.2,0.3c-0.6,0.2-1.2,0.4-1.4-0.4c-0.2-0.7,0.2-1.1,0.7-1.4c0.1,0,0.2-0.1,0.2-0.1c0.7-0.4,1.7-0.1,2-1.2
		c0.4-1.3,0.2-2.6-0.2-3.9c-0.2-0.7-0.8-0.5-1.2-0.5c-0.7,0-1.3-0.1-1.4-0.9c-0.1-0.8,0.5-0.9,1.2-0.9c1,0,0.5-0.7,0.5-1.1
		C11.9,74.8,14.1,72.3,17.6,72.4z"/>
</g>
</svg>
