<svg width="32" height="94" viewBox="0 0 32 94" fill="none" xmlns="http://www.w3.org/2000/svg">
<g clip-path="url(#clip0_1399_38)">
<path d="M32.0002 37.3806V46H0.0356338C0.0291906 45.9074 0.0130827 45.7988 0.0130827 45.6902C0.0130827 44.0423 0.0195259 42.3945 0.00341797 40.7466C0.00341797 40.4687 0.106509 40.357 0.341684 40.2452C3.34742 38.8241 5.68951 36.7259 7.10379 33.692C7.88986 32.0026 7.98973 30.2206 7.78999 28.4003C7.75455 28.0841 7.71267 27.768 7.66435 27.4071H0.808814V20.2248H6.37249C6.27262 19.5541 6.16631 18.9282 6.08577 18.2991C5.83126 16.252 5.68629 14.2017 6.01812 12.1515C6.93949 6.47333 10.2158 2.72729 15.6893 0.964445C20.0352 -0.434333 24.4198 -0.268268 28.7528 1.17841C29.0943 1.29338 29.4229 1.44348 29.7419 1.60954C29.8321 1.65745 29.9352 1.8299 29.9158 1.91932C29.3617 4.50291 28.7947 7.0833 28.2181 9.70202C27.0454 9.06969 25.8083 8.74076 24.5229 8.59066C23.2149 8.43737 21.9038 8.3703 20.5958 8.61302C17.9992 9.09205 16.3401 10.7687 15.9374 13.3714C15.5927 15.6037 15.8955 17.8009 16.3658 19.9853C16.4271 20.2759 16.6139 20.2216 16.7975 20.2216C19.2459 20.2216 21.6943 20.2216 24.1428 20.2216C24.7581 20.2216 25.3734 20.2216 26.0177 20.2216V27.3816H17.3388C17.4064 29.2945 17.2357 31.1244 16.4947 32.8649C15.7634 34.5862 14.6584 36.0393 13.2602 37.288C13.2731 37.3199 13.2892 37.3486 13.3021 37.3806H31.997H32.0002Z" fill="#274964"/>
</g>
<g clip-path="url(#clip1_1399_38)">
<path d="M32.0002 85.3806V94H0.0356338C0.0291906 93.9074 0.0130827 93.7988 0.0130827 93.6902C0.0130827 92.0423 0.0195259 90.3945 0.00341797 88.7466C0.00341797 88.4687 0.106509 88.357 0.341684 88.2452C3.34742 86.8241 5.68951 84.7259 7.10379 81.692C7.88986 80.0026 7.98973 78.2206 7.78999 76.4003C7.75455 76.0841 7.71267 75.768 7.66435 75.4071H0.808814V68.2248H6.37249C6.27262 67.5541 6.16631 66.9282 6.08577 66.2991C5.83126 64.252 5.68629 62.2017 6.01812 60.1515C6.93949 54.4733 10.2158 50.7273 15.6893 48.9644C20.0352 47.5657 24.4198 47.7317 28.7528 49.1784C29.0943 49.2934 29.4229 49.4435 29.7419 49.6095C29.8321 49.6574 29.9352 49.8299 29.9158 49.9193C29.3617 52.5029 28.7947 55.0833 28.2181 57.702C27.0454 57.0697 25.8083 56.7408 24.5229 56.5907C23.2149 56.4374 21.9038 56.3703 20.5958 56.613C17.9992 57.092 16.3401 58.7687 15.9374 61.3714C15.5927 63.6037 15.8955 65.8009 16.3658 67.9853C16.4271 68.2759 16.6139 68.2216 16.7975 68.2216C19.2459 68.2216 21.6943 68.2216 24.1428 68.2216C24.7581 68.2216 25.3734 68.2216 26.0177 68.2216V75.3816H17.3388C17.4064 77.2945 17.2357 79.1244 16.4947 80.8649C15.7634 82.5862 14.6584 84.0393 13.2602 85.288C13.2731 85.3199 13.2892 85.3486 13.3021 85.3806H31.997H32.0002Z" fill="white"/>
</g>
<defs>
<clipPath id="clip0_1399_38">
<rect width="32" height="46" fill="white"/>
</clipPath>
<clipPath id="clip1_1399_38">
<rect width="32" height="46" fill="white" transform="translate(0 48)"/>
</clipPath>
</defs>
</svg>
