<?xml version="1.0" encoding="utf-8"?>
<!-- Generator: Adobe Illustrator 27.0.0, SVG Export Plug-In . SVG Version: 6.00 Build 0)  -->
<svg version="1.1" id="Layer_1" xmlns="http://www.w3.org/2000/svg" xmlns:xlink="http://www.w3.org/1999/xlink" x="0px" y="0px"
	 viewBox="0 0 51 95" style="enable-background:new 0 0 51 95;" xml:space="preserve">
<style type="text/css">
	.st0{fill:#008285;}
	.st1{fill:#FFFFFF;}
	.st2{fill:#274964;}
</style>
<path class="st0" d="M27,46c-6.6,0-13.2,0-19.8,0c-1.4,0-2.9,0.1-4.3,0c-2.7-0.3-3.7-2.4-2.3-4.8C5,33.2,9.5,25.3,14,17.4
	c2.9-5.2,5.8-10.3,8.7-15.5C23.3,0.7,24.1,0,25.4,0c1.4,0,2.3,0.6,2.9,1.8c5.2,9.3,10.5,18.6,15.8,27.9c2,3.5,3.9,6.9,5.9,10.4
	c0.2,0.4,0.4,0.7,0.6,1.1c1.1,2.6-0.2,4.6-3,4.7C40.7,46,33.9,46,27,46L27,46z"/>
<path class="st1" d="M27.7,16.6v12.7c-1.3,0-2.5,0.1-3.7,0c-0.3,0-0.8-0.5-0.8-0.9c-0.1-3.6-0.1-7.2,0-10.8c0-0.3,0.5-0.9,0.8-0.9
	C25.3,16.6,26.5,16.6,27.7,16.6L27.7,16.6z"/>
<path class="st1" d="M27.8,37.8c-1.3,0-2.6,0-3.8,0c-0.3,0-0.7-0.5-0.8-0.7c-0.1-1.3,0-2.5,0-4c1.3,0,2.5-0.1,3.7,0
	c0.3,0,0.8,0.6,0.9,0.9C27.9,35.2,27.8,36.4,27.8,37.8z"/>
<path class="st1" d="M27,94c-6.6,0-13.2,0-19.8,0c-1.4,0-2.9,0.1-4.3,0c-2.7-0.3-3.7-2.4-2.3-4.8C5,81.2,9.5,73.3,14,65.4
	c2.9-5.2,5.8-10.3,8.7-15.5c0.6-1.1,1.4-1.8,2.7-1.8c1.4,0,2.3,0.6,2.9,1.8c5.2,9.3,10.5,18.6,15.8,27.9c2,3.5,3.9,6.9,5.9,10.4
	c0.2,0.4,0.4,0.7,0.6,1.1c1.1,2.6-0.2,4.6-3,4.7C40.7,94,33.9,94,27,94L27,94z"/>
<path class="st2" d="M27.7,64.6v12.7c-1.3,0-2.5,0.1-3.7,0c-0.3,0-0.8-0.5-0.8-0.9c-0.1-3.6-0.1-7.2,0-10.8c0-0.3,0.5-0.9,0.8-0.9
	C25.3,64.6,26.5,64.6,27.7,64.6L27.7,64.6z"/>
<path class="st2" d="M27.8,85.8c-1.3,0-2.6,0-3.8,0c-0.3,0-0.7-0.5-0.8-0.7c-0.1-1.3,0-2.5,0-4c1.3,0,2.5-0.1,3.7,0
	c0.3,0,0.8,0.6,0.9,0.9C27.9,83.2,27.8,84.4,27.8,85.8z"/>
</svg>
