<?xml version="1.0" encoding="utf-8"?>
<!-- Generator: Adobe Illustrator 27.0.0, SVG Export Plug-In . SVG Version: 6.00 Build 0)  -->
<svg version="1.1" id="Layer_1" xmlns="http://www.w3.org/2000/svg" xmlns:xlink="http://www.w3.org/1999/xlink" x="0px" y="0px"
	 viewBox="0 0 51 95" style="enable-background:new 0 0 51 95;" xml:space="preserve">
<style type="text/css">
	.st0{fill:#274964;}
	.st1{fill:#FFFFFF;}
</style>
<g>
	<path class="st0" d="M49.9,44.4c-0.2,0.4-0.3,0.8-0.7,1.2c-0.5,0.5-1.1,0.7-1.7,0.7c-6.4,0-12.7,0-19.1,0c-1.8,0-2.8-1.4-2.3-3.2
		c0-0.1,0-0.1,0-0.2c-0.2,0-0.4,0-0.6,0c-5.7,0-11.5,0-17.2,0c-3.8,0-6.8-3.2-6.5-7c0.1-1.3,0.4-2.6,0.6-3.9
		c0.1-0.9,0.3-1.8,0.4-2.7c0.1-0.6,0.4-0.9,0.8-0.8c0.4,0.1,0.7,0.4,0.6,1c-0.3,2-0.6,4.1-0.9,6.1c-0.5,3.2,1.9,5.9,5.1,5.9
		c5.3,0,10.5,0,15.8,0c0.5,0,1,0,1.5,0c0.2,0,0.3,0,0.2-0.3c-0.1-0.7,0-1.3,0.5-1.9c0.1-0.1,0.1-0.2,0-0.4c-0.7-0.9-0.7-1.9,0-2.8
		c0.1-0.2,0.1-0.3,0-0.4c-0.6-0.8-0.6-1.6-0.2-2.5c0.5-0.9,1.2-1.3,2.2-1.3c1.2,0,2.4,0,3.7,0c0-0.2-0.2-0.2-0.2-0.3
		c-4.4-2.6-6.7-7.7-5.6-12.7c0-0.2,0.1-0.4-0.1-0.5c-1-0.8-1.9-1.6-3-2.1c-0.2-0.1-0.4-0.1-0.6-0.2c0.3,0.3,0.6,0.6,0.8,0.9
		c0.3,0.4,0.6,0.8,0.9,1.2c0.3,0.4,0.2,0.8-0.1,1.1c-0.3,0.2-0.7,0.1-1-0.3c-0.1-0.1-0.1-0.2-0.2-0.3c-0.5-0.7-1-1.3-1.7-1.8
		c-0.8-0.7-1.7-1.1-2.8-1c-0.3,0-0.6,0-0.9,0c-1.1-0.1-1.9,0.3-2.7,1c-0.7,0.5-1.2,1.2-1.7,1.9c-0.1,0.1-0.2,0.2-0.2,0.3
		c-0.3,0.3-0.7,0.4-1,0.2c-0.3-0.2-0.4-0.6-0.2-1c0.5-0.8,1.1-1.5,1.8-2.2c-0.5,0.1-0.9,0.2-1.2,0.4c-3.4,2.2-6,5.1-7.3,9
		c-0.1,0.2-0.1,0.4-0.2,0.6c-0.1,0.4-0.5,0.6-0.8,0.5c-0.4-0.1-0.6-0.4-0.5-0.9c0.2-1,0.5-1.9,1-2.7c1.6-3.2,4-5.8,7.1-7.7
		c0.4-0.2,0.9-0.3,1.2-0.6c0.3-0.3-0.2-0.8-0.2-1.2c0-0.3,0-0.7,0-1c0-0.7,0.3-1.4,0.8-1.9c0.2-0.2,0.2-0.3,0.1-0.6
		c-0.6-1.6-1.3-3.2-1.9-4.8c-0.4-1,0.1-1.8,1.1-2c0.6-0.1,1.3-0.3,1.9-0.4c0.3,0,0.3-0.2,0.3-0.4c-0.4-1.7,0.6-2.1,1.8-2.4
		c1.1-0.3,2.2-0.2,3.2,0.1c1.2,0.3,1.6,1,1.4,2.2c-0.1,0.4,0,0.5,0.4,0.6c0.6,0.1,1.2,0.2,1.7,0.4c1,0.2,1.5,1,1.1,2
		c-0.6,1.6-1.2,3.1-1.9,4.7c-0.1,0.3-0.1,0.4,0.1,0.7c0.8,0.8,1.1,2.4,0.6,3.6C23,14.7,23,14.9,23.3,15c1,0.3,1.8,0.9,2.6,1.6
		c0.2,0.2,0.4,0.3,0.7,0.6c0.5-1.2,1.1-2.3,1.9-3.3c1.8-2.2,4.2-3.7,7-4.2c0.4-0.1,0.8-0.1,1,0.4c0.2,0.4,0,0.8-0.5,1
		c-0.5,0.1-1,0.2-1.5,0.4c-4.7,1.5-7.6,6-7.2,11.1c0.4,4.7,4.1,8.6,8.8,9.4c6.9,1.1,13-4.7,12.2-11.6c-0.6-4.9-4.3-8.7-9.2-9.3
		c-0.1,0-0.2,0-0.3,0c-0.5-0.1-0.7-0.4-0.7-0.8c0.1-0.4,0.4-0.6,0.9-0.6c1.3,0.1,2.6,0.5,3.8,1c4,2,6.3,5.1,6.9,9.5
		c0,0.1,0.1,0.2,0.1,0.3c0,0.7,0,1.4,0,2.2c0,0.1-0.1,0.2-0.1,0.3c-0.4,3.1-1.7,5.6-4,7.7c-0.6,0.6-1.3,1-2,1.5c1.1,0,2.2,0.1,3.2,0
		c1.4-0.1,2.4,0.5,2.9,1.9c0,0.3,0,0.6,0,0.9c-0.2,0.3-0.3,0.7-0.5,1c-0.1,0.1-0.1,0.2,0,0.2c0.3,0.3,0.4,0.7,0.5,1
		c0,0.3,0,0.6,0,0.9c-0.2,0.4-0.3,0.7-0.6,1.1c-0.1,0.1-0.1,0.2,0,0.2c0.3,0.3,0.4,0.7,0.5,1.1c0,0.3,0,0.6,0,0.8
		c-0.2,0.4-0.3,0.8-0.5,1.1c-0.1,0.1-0.1,0.2,0,0.2c0.3,0.3,0.4,0.7,0.6,1C49.9,43.8,49.9,44.1,49.9,44.4z M37.8,41.6
		c3.1,0,6.2,0,9.3,0c0.2,0,0.3,0,0.5,0c0.5-0.1,0.8-0.4,0.8-0.9c0-0.5-0.3-0.8-0.8-0.9c-0.2,0-0.3,0-0.5,0c-3.7,0-7.4,0-11.2,0
		c-0.2,0-0.4,0-0.5,0c-0.4-0.1-0.6-0.3-0.5-0.7c0-0.4,0.2-0.6,0.6-0.7c0.2,0,0.3,0,0.5,0c3.7,0,7.4,0,11.2,0c0.2,0,0.3,0,0.5,0
		c0.5-0.1,0.8-0.5,0.8-0.9c0-0.5-0.3-0.8-0.8-0.9c-0.2,0-0.3,0-0.5,0c-6.2,0-12.4,0-18.6,0c-0.1,0-0.3,0-0.4,0
		c-0.5,0-0.9,0.4-0.9,0.9c0,0.5,0.3,0.9,0.9,0.9c0.1,0,0.3,0,0.4,0c1.3,0,2.6,0,3.8,0c0.5,0,0.8,0.3,0.8,0.7c0,0.4-0.3,0.7-0.7,0.7
		c-0.1,0-0.3,0-0.4,0c-1.3,0-2.6,0-3.8,0c-0.4,0-0.7,0.2-0.9,0.6c-0.1,0.4-0.1,0.7,0.2,1c0.2,0.2,0.6,0.2,0.9,0.2
		C31.6,41.6,34.7,41.6,37.8,41.6z M37.8,35.2c3.1,0,6.2,0,9.3,0c0.2,0,0.4,0,0.6,0c0.4-0.1,0.7-0.4,0.7-0.8c0-0.4-0.2-0.8-0.7-0.9
		c-0.2,0-0.4-0.1-0.6-0.1c-6.2,0-12.5,0-18.7,0c-0.1,0-0.3,0-0.4,0c-0.5,0.1-0.8,0.4-0.8,0.9c0,0.5,0.3,0.8,0.8,0.9
		c0.2,0,0.3,0,0.5,0C31.7,35.2,34.8,35.2,37.8,35.2z M37.8,43c-3.1,0-6.2,0-9.3,0c-0.2,0-0.4,0-0.6,0c-0.5,0.1-0.7,0.5-0.7,0.9
		c0,0.4,0.3,0.8,0.8,0.8c0.2,0,0.4,0,0.6,0c6.2,0,12.3,0,18.5,0c0.1,0,0.3,0,0.4,0c0.5,0,0.9-0.4,0.9-0.9c0-0.5-0.4-0.9-0.9-0.9
		c-0.1,0-0.3,0-0.4,0C44,43,40.9,43,37.8,43z M17.9,14.6c1,0,2,0,3,0c0.7,0,1.1-0.4,1.1-1.1c0-0.2,0-0.4,0-0.6
		c0-0.9-0.4-1.3-1.3-1.3c-1.7,0-3.4,0-5.1,0c-1.6,0-1.8,0.2-1.8,1.8c0,0.8,0.4,1.2,1.2,1.2C16,14.6,16.9,14.6,17.9,14.6z M17.8,1.5
		c-0.2,0-0.6,0-0.9,0.1C16,1.8,16,1.9,16.1,2.8c0.3,2.2,0.5,4.3,0.8,6.5c0.1,0.9,0.1,0.9,1,0.9c0.1,0,0.2,0,0.3,0
		c0.4,0.1,0.5-0.1,0.5-0.5c0.3-2.5,0.6-5,0.9-7.4c0-0.3,0-0.4-0.3-0.5C18.9,1.6,18.4,1.6,17.8,1.5z M20.2,9.7c0,0.1-0.1,0.3,0,0.4
		c0.2,0.2,0.7,0,0.8-0.2c0.6-1.6,1.2-3.1,1.9-4.7C23,5,23,4.9,22.7,4.8c-0.5-0.1-1-0.2-1.5-0.3c-0.3-0.1-0.4,0-0.5,0.3
		C20.6,6.5,20.4,8.1,20.2,9.7z M15.2,10.1c0.3,0,0.5,0,0.4-0.3c-0.2-1.7-0.4-3.3-0.6-5c0-0.3-0.2-0.3-0.4-0.3
		c-0.5,0.1-1,0.2-1.5,0.3c-0.3,0-0.3,0.2-0.2,0.4c0.6,1.5,1.2,3,1.8,4.6C14.8,10.1,14.9,10.2,15.2,10.1z"/>
</g>
<g>
	<path class="st0" d="M17.3,24.5c0.9,0,1.7,0.2,2.4,0.8c0.4,0.3,0.8,0.7,0.3,1.2c-0.4,0.4-0.8,0.2-1.1-0.1c-0.8-0.6-1.9-0.8-2.6-0.3
		c-0.7,0.4-1,1.3-0.8,2.4c0.1,0.4,0.3,0.6,0.7,0.6c0.7,0,1.4,0,2.1,0c0.4,0,0.7,0.1,0.7,0.6s-0.3,0.6-0.7,0.6c-0.1,0-0.2,0-0.3,0
		c-0.6,0-1.3-0.2-1.7,0.1c-0.4,0.3,0.1,1,0.1,1.5c-0.1,0.2,0,0.4-0.1,0.5c-0.5,1,0,1.1,0.8,1.3c1.2,0.3,2.3,0.7,3.5,0
		c0.3-0.2,0.6-0.1,0.8,0.3c0.1,0.4,0,0.7-0.3,0.9c-0.7,0.4-1.5,0.6-2.2,0.4c-0.8-0.2-1.6-0.3-2.4-0.5c-0.9-0.2-1.8-0.1-2.7,0.2
		c-0.4,0.1-0.8,0.3-0.9-0.3c-0.1-0.4,0.1-0.7,0.4-0.9c0.1,0,0.1-0.1,0.1-0.1c0.4-0.3,1.1-0.1,1.3-0.8c0.3-0.8,0.1-1.7-0.1-2.5
		c-0.1-0.4-0.5-0.3-0.8-0.3c-0.4,0-0.8-0.1-0.9-0.6C12.8,29,13.2,29,13.7,29c0.6,0,0.3-0.4,0.3-0.7C13.7,26,15.1,24.4,17.3,24.5z"/>
</g>
<g>
	<path class="st0" d="M38.5,17.2c0.6,0,1.2,0.1,1.7,0.5c0.3,0.2,0.5,0.5,0.2,0.9c-0.3,0.3-0.5,0.1-0.8-0.1c-0.5-0.5-1.4-0.5-1.8-0.2
		c-0.5,0.3-0.7,0.9-0.6,1.7c0,0.3,0.2,0.4,0.5,0.4c0.5,0,1,0,1.5,0c0.3,0,0.5,0.1,0.5,0.4c0,0.3-0.2,0.4-0.5,0.4c0,0-0.1,0-0.2,0
		c-0.4,0-0.9-0.1-1.2,0c-0.3,0.2,0.1,0.7,0,1.1c0,0.1,0,0.3,0,0.4c-0.4,0.7,0,0.8,0.6,0.9c0.9,0.2,1.6,0.5,2.5,0
		c0.2-0.1,0.5-0.1,0.5,0.2c0.1,0.3,0,0.5-0.2,0.6c-0.5,0.3-1,0.5-1.6,0.3c-0.6-0.1-1.1-0.2-1.7-0.4c-0.6-0.1-1.3-0.1-1.9,0.1
		c-0.3,0.1-0.5,0.2-0.6-0.2c-0.1-0.3,0.1-0.5,0.3-0.6c0,0,0.1,0,0.1,0c0.3-0.2,0.8,0,0.9-0.5c0.2-0.6,0.1-1.2-0.1-1.8
		c-0.1-0.3-0.4-0.2-0.5-0.2c-0.3,0-0.6,0-0.6-0.4c0-0.4,0.2-0.4,0.5-0.4c0.5,0,0.2-0.3,0.2-0.5C36,18.3,36.9,17.2,38.5,17.2z"/>
</g>
<g>
	<path class="st1" d="M49.9,93.4c-0.2,0.4-0.3,0.8-0.7,1.2c-0.5,0.5-1.1,0.7-1.7,0.7c-6.4,0-12.7,0-19.1,0c-1.8,0-2.8-1.4-2.3-3.2
		c0-0.1,0-0.1,0-0.2c-0.2,0-0.4,0-0.6,0c-5.7,0-11.5,0-17.2,0c-3.8,0-6.8-3.2-6.5-7c0.1-1.3,0.4-2.6,0.6-3.9
		c0.1-0.9,0.3-1.8,0.4-2.7c0.1-0.6,0.4-0.9,0.8-0.8c0.4,0.1,0.7,0.4,0.6,1c-0.3,2-0.6,4.1-0.9,6.1c-0.5,3.2,1.9,5.9,5.1,5.9
		c5.3,0,10.5,0,15.8,0c0.5,0,1,0,1.5,0c0.2,0,0.3,0,0.2-0.3c-0.1-0.7,0-1.3,0.5-1.9c0.1-0.1,0.1-0.2,0-0.4c-0.7-0.9-0.7-1.9,0-2.8
		c0.1-0.2,0.1-0.3,0-0.4c-0.6-0.8-0.6-1.6-0.2-2.5c0.5-0.9,1.2-1.3,2.2-1.3c1.2,0,2.4,0,3.7,0c0-0.2-0.2-0.2-0.2-0.3
		c-4.4-2.6-6.7-7.7-5.6-12.7c0-0.2,0.1-0.4-0.1-0.5c-1-0.8-1.9-1.6-3-2.1c-0.2-0.1-0.4-0.1-0.6-0.2c0.3,0.3,0.6,0.6,0.8,0.9
		c0.3,0.4,0.6,0.8,0.9,1.2c0.3,0.4,0.2,0.8-0.1,1.1c-0.3,0.2-0.7,0.1-1-0.3c-0.1-0.1-0.1-0.2-0.2-0.3c-0.5-0.7-1-1.3-1.7-1.8
		c-0.8-0.7-1.7-1.1-2.8-1c-0.3,0-0.6,0-0.9,0c-1.1-0.1-1.9,0.3-2.7,1c-0.7,0.5-1.2,1.2-1.7,1.9c-0.1,0.1-0.2,0.2-0.2,0.3
		c-0.3,0.3-0.7,0.4-1,0.2c-0.3-0.2-0.4-0.6-0.2-1c0.5-0.8,1.1-1.5,1.8-2.2c-0.5,0.1-0.9,0.2-1.2,0.4c-3.4,2.2-6,5.1-7.3,9
		c-0.1,0.2-0.1,0.4-0.2,0.6c-0.1,0.4-0.5,0.6-0.8,0.5c-0.4-0.1-0.6-0.4-0.5-0.9c0.2-1,0.5-1.9,1-2.7c1.6-3.2,4-5.8,7.1-7.7
		c0.4-0.2,0.9-0.3,1.2-0.6c0.3-0.3-0.2-0.8-0.2-1.2c0-0.3,0-0.7,0-1c0-0.7,0.3-1.4,0.8-1.9c0.2-0.2,0.2-0.3,0.1-0.6
		c-0.6-1.6-1.3-3.2-1.9-4.8c-0.4-1,0.1-1.8,1.1-2c0.6-0.1,1.3-0.3,1.9-0.4c0.3,0,0.3-0.2,0.3-0.4c-0.4-1.7,0.6-2.1,1.8-2.4
		c1.1-0.3,2.2-0.2,3.2,0.1c1.2,0.3,1.6,1,1.4,2.2c-0.1,0.4,0,0.5,0.4,0.6c0.6,0.1,1.2,0.2,1.7,0.4c1,0.2,1.5,1,1.1,2
		c-0.6,1.6-1.2,3.1-1.9,4.7c-0.1,0.3-0.1,0.4,0.1,0.7c0.8,0.8,1.1,2.4,0.6,3.6C23,63.7,23,63.9,23.3,64c1,0.3,1.8,0.9,2.6,1.6
		c0.2,0.2,0.4,0.3,0.7,0.6c0.5-1.2,1.1-2.3,1.9-3.3c1.8-2.2,4.2-3.7,7-4.2c0.4-0.1,0.8-0.1,1,0.4c0.2,0.4,0,0.8-0.5,1
		c-0.5,0.1-1,0.2-1.5,0.4c-4.7,1.5-7.6,6-7.2,11.1c0.4,4.7,4.1,8.6,8.8,9.4c6.9,1.1,13-4.7,12.2-11.6c-0.6-4.9-4.3-8.7-9.2-9.3
		c-0.1,0-0.2,0-0.3,0c-0.5-0.1-0.7-0.4-0.7-0.8c0.1-0.4,0.4-0.6,0.9-0.6c1.3,0.1,2.6,0.5,3.8,1c4,2,6.3,5.1,6.9,9.5
		c0,0.1,0.1,0.2,0.1,0.3c0,0.7,0,1.4,0,2.2c0,0.1-0.1,0.2-0.1,0.3c-0.4,3.1-1.7,5.6-4,7.7c-0.6,0.6-1.3,1-2,1.5c1.1,0,2.2,0.1,3.2,0
		c1.4-0.1,2.4,0.5,2.9,1.9c0,0.3,0,0.6,0,0.9c-0.2,0.3-0.3,0.7-0.5,1c-0.1,0.1-0.1,0.2,0,0.2c0.3,0.3,0.4,0.7,0.5,1
		c0,0.3,0,0.6,0,0.9c-0.2,0.4-0.3,0.7-0.6,1.1c-0.1,0.1-0.1,0.2,0,0.2c0.3,0.3,0.4,0.7,0.5,1.1c0,0.3,0,0.6,0,0.8
		c-0.2,0.4-0.3,0.8-0.5,1.1c-0.1,0.1-0.1,0.2,0,0.2c0.3,0.3,0.4,0.7,0.6,1C49.9,92.8,49.9,93.1,49.9,93.4z M37.8,90.6
		c3.1,0,6.2,0,9.3,0c0.2,0,0.3,0,0.5,0c0.5-0.1,0.8-0.4,0.8-0.9c0-0.5-0.3-0.8-0.8-0.9c-0.2,0-0.3,0-0.5,0c-3.7,0-7.4,0-11.2,0
		c-0.2,0-0.4,0-0.5,0c-0.4-0.1-0.6-0.3-0.5-0.7c0-0.4,0.2-0.6,0.6-0.7c0.2,0,0.3,0,0.5,0c3.7,0,7.4,0,11.2,0c0.2,0,0.3,0,0.5,0
		c0.5-0.1,0.8-0.5,0.8-0.9c0-0.5-0.3-0.8-0.8-0.9c-0.2,0-0.3,0-0.5,0c-6.2,0-12.4,0-18.6,0c-0.1,0-0.3,0-0.4,0
		c-0.5,0-0.9,0.4-0.9,0.9c0,0.5,0.3,0.9,0.9,0.9c0.1,0,0.3,0,0.4,0c1.3,0,2.6,0,3.8,0c0.5,0,0.8,0.3,0.8,0.7c0,0.4-0.3,0.7-0.7,0.7
		c-0.1,0-0.3,0-0.4,0c-1.3,0-2.6,0-3.8,0c-0.4,0-0.7,0.2-0.9,0.6c-0.1,0.4-0.1,0.7,0.2,1c0.2,0.2,0.6,0.2,0.9,0.2
		C31.6,90.6,34.7,90.6,37.8,90.6z M37.8,84.2c3.1,0,6.2,0,9.3,0c0.2,0,0.4,0,0.6,0c0.4-0.1,0.7-0.4,0.7-0.8c0-0.4-0.2-0.8-0.7-0.9
		c-0.2,0-0.4-0.1-0.6-0.1c-6.2,0-12.5,0-18.7,0c-0.1,0-0.3,0-0.4,0c-0.5,0.1-0.8,0.4-0.8,0.9c0,0.5,0.3,0.8,0.8,0.9
		c0.2,0,0.3,0,0.5,0C31.7,84.2,34.8,84.2,37.8,84.2z M37.8,92c-3.1,0-6.2,0-9.3,0c-0.2,0-0.4,0-0.6,0c-0.5,0.1-0.7,0.5-0.7,0.9
		c0,0.4,0.3,0.8,0.8,0.8c0.2,0,0.4,0,0.6,0c6.2,0,12.3,0,18.5,0c0.1,0,0.3,0,0.4,0c0.5,0,0.9-0.4,0.9-0.9c0-0.5-0.4-0.9-0.9-0.9
		c-0.1,0-0.3,0-0.4,0C44,92,40.9,92,37.8,92z M17.9,63.6c1,0,2,0,3,0c0.7,0,1.1-0.4,1.1-1.1c0-0.2,0-0.4,0-0.6
		c0-0.9-0.4-1.3-1.3-1.3c-1.7,0-3.4,0-5.1,0c-1.6,0-1.8,0.2-1.8,1.8c0,0.8,0.4,1.2,1.2,1.2C16,63.6,16.9,63.6,17.9,63.6z M17.8,50.5
		c-0.2,0-0.6,0-0.9,0.1c-0.9,0.2-0.9,0.2-0.8,1.1c0.3,2.2,0.5,4.3,0.8,6.5c0.1,0.9,0.1,0.9,1,0.9c0.1,0,0.2,0,0.3,0
		c0.4,0.1,0.5-0.1,0.5-0.5c0.3-2.5,0.6-5,0.9-7.4c0-0.3,0-0.4-0.3-0.5C18.9,50.6,18.4,50.6,17.8,50.5z M20.2,58.7
		c0,0.1-0.1,0.3,0,0.4c0.2,0.2,0.7,0,0.8-0.2c0.6-1.6,1.2-3.1,1.9-4.7c0.1-0.2,0.1-0.3-0.2-0.4c-0.5-0.1-1-0.2-1.5-0.3
		c-0.3-0.1-0.4,0-0.5,0.3C20.6,55.5,20.4,57.1,20.2,58.7z M15.2,59.1c0.3,0,0.5,0,0.4-0.3c-0.2-1.7-0.4-3.3-0.6-5
		c0-0.3-0.2-0.3-0.4-0.3c-0.5,0.1-1,0.2-1.5,0.3c-0.3,0-0.3,0.2-0.2,0.4c0.6,1.5,1.2,3,1.8,4.6C14.8,59.1,14.9,59.2,15.2,59.1z"/>
</g>
<g>
	<path class="st1" d="M17.3,73.5c0.9,0,1.7,0.2,2.4,0.8c0.4,0.3,0.8,0.7,0.3,1.2c-0.4,0.4-0.8,0.2-1.1-0.1c-0.8-0.6-1.9-0.8-2.6-0.3
		c-0.7,0.4-1,1.3-0.8,2.4c0.1,0.4,0.3,0.6,0.7,0.6c0.7,0,1.4,0,2.1,0c0.4,0,0.7,0.1,0.7,0.6s-0.3,0.6-0.7,0.6c-0.1,0-0.2,0-0.3,0
		c-0.6,0-1.3-0.2-1.7,0.1c-0.4,0.3,0.1,1,0.1,1.5c-0.1,0.2,0,0.4-0.1,0.5c-0.5,1,0,1.1,0.8,1.3c1.2,0.3,2.3,0.7,3.5,0
		c0.3-0.2,0.6-0.1,0.8,0.3s0,0.7-0.3,0.9c-0.7,0.4-1.5,0.6-2.2,0.4c-0.8-0.2-1.6-0.3-2.4-0.5c-0.9-0.2-1.8-0.1-2.7,0.2
		c-0.4,0.1-0.8,0.3-0.9-0.3c-0.1-0.4,0.1-0.7,0.4-0.9c0.1,0,0.1-0.1,0.1-0.1c0.4-0.3,1.1-0.1,1.3-0.8c0.3-0.8,0.1-1.7-0.1-2.5
		c-0.1-0.4-0.5-0.3-0.8-0.3c-0.4,0-0.8-0.1-0.9-0.6C12.8,78,13.2,78,13.7,78c0.6,0,0.3-0.4,0.3-0.7C13.7,75,15.1,73.4,17.3,73.5z"/>
</g>
<g>
	<path class="st1" d="M38.5,66.2c0.6,0,1.2,0.1,1.7,0.5c0.3,0.2,0.5,0.5,0.2,0.9c-0.3,0.3-0.5,0.1-0.8-0.1c-0.5-0.5-1.4-0.5-1.8-0.2
		c-0.5,0.3-0.7,0.9-0.6,1.7c0,0.3,0.2,0.4,0.5,0.4c0.5,0,1,0,1.5,0c0.3,0,0.5,0.1,0.5,0.4s-0.2,0.4-0.5,0.4c0,0-0.1,0-0.2,0
		c-0.4,0-0.9-0.1-1.2,0c-0.3,0.2,0.1,0.7,0,1.1c0,0.1,0,0.3,0,0.4c-0.4,0.7,0,0.8,0.6,0.9c0.9,0.2,1.6,0.5,2.5,0
		c0.2-0.1,0.5-0.1,0.5,0.2c0.1,0.3,0,0.5-0.2,0.6c-0.5,0.3-1,0.5-1.6,0.3c-0.6-0.1-1.1-0.2-1.7-0.4c-0.6-0.1-1.3-0.1-1.9,0.1
		c-0.3,0.1-0.5,0.2-0.6-0.2c-0.1-0.3,0.1-0.5,0.3-0.6c0,0,0.1,0,0.1,0c0.3-0.2,0.8,0,0.9-0.5c0.2-0.6,0.1-1.2-0.1-1.8
		c-0.1-0.3-0.4-0.2-0.5-0.2c-0.3,0-0.6,0-0.6-0.4c0-0.4,0.2-0.4,0.5-0.4c0.5,0,0.2-0.3,0.2-0.5C36,67.3,36.9,66.2,38.5,66.2z"/>
</g>
</svg>
