<?xml version="1.0" encoding="utf-8"?>
<!-- Generator: Adobe Illustrator 27.0.0, SVG Export Plug-In . SVG Version: 6.00 Build 0)  -->
<svg version="1.1" id="Layer_1" xmlns="http://www.w3.org/2000/svg" xmlns:xlink="http://www.w3.org/1999/xlink" x="0px" y="0px"
	 viewBox="0 0 46 95" style="enable-background:new 0 0 46 95;" xml:space="preserve">
<style type="text/css">
	.st0{fill:#008285;}
	.st1{fill:#FFFFFF;}
</style>
<g>
	<path class="st0" d="M22.1,0c0.6,0,1.2,0,1.8,0c4.6,3.8,10,5.6,15.8,6.1c2.7,0.2,2.9,0.2,2.9,3.1c0,4,0,7.9,0,11.9
		c0,2.3,0.2,4.6-0.2,6.8c-1.8,8.8-7.6,14.3-15.7,17.6c-2.4,1-4.8,0.9-7.2,0c-3.4-1.2-6.2-3.1-8.7-5.6c-3.6-3.6-6.7-7.6-7-12.8
		C3.5,20.8,3.7,14.6,3.7,8.3c0-1.3,0.7-1.8,2-2c2.5-0.3,5.2-0.5,7.6-1.4C16.3,3.6,19.1,1.7,22.1,0z M21.3,19.6c0,1.7,0,3.5,0,5.2
		c0,1.3,0.6,2.2,2,2.2c1.3,0,2-0.9,2-2.1c0-3.5,0-7.1,0-10.6c0-1.2-0.7-2.1-2-2c-1.3,0-1.9,0.8-1.9,2.1
		C21.3,16.1,21.3,17.8,21.3,19.6z M21.3,32.7c-0.1,1.3,0.3,2.4,1.9,2.6c1.3,0.1,2.1-1,2.1-2.7c0-1.8-0.7-2.8-2-2.8
		C21.9,29.7,21.2,30.7,21.3,32.7z"/>
</g>
<g>
	<path class="st1" d="M22.1,49c0.6,0,1.2,0,1.8,0c4.6,3.8,10,5.6,15.8,6.1c2.7,0.2,2.9,0.2,2.9,3.1c0,4,0,7.9,0,11.9
		c0,2.3,0.2,4.6-0.2,6.8c-1.8,8.8-7.6,14.3-15.7,17.6c-2.4,1-4.8,0.9-7.2,0c-3.4-1.2-6.2-3.1-8.7-5.6c-3.6-3.6-6.7-7.6-7-12.8
		c-0.3-6.2-0.1-12.5-0.1-18.7c0-1.3,0.7-1.8,2-2c2.5-0.3,5.2-0.5,7.6-1.4C16.3,52.6,19.1,50.7,22.1,49z M21.3,68.6
		c0,1.7,0,3.5,0,5.2c0,1.3,0.6,2.2,2,2.2c1.3,0,2-0.9,2-2.1c0-3.5,0-7.1,0-10.6c0-1.2-0.7-2.1-2-2c-1.3,0-1.9,0.8-1.9,2.1
		C21.3,65.1,21.3,66.8,21.3,68.6z M21.3,81.7c-0.1,1.3,0.3,2.4,1.9,2.6c1.3,0.1,2.1-1,2.1-2.7c0-1.8-0.7-2.8-2-2.8
		C21.9,78.7,21.2,79.7,21.3,81.7z"/>
</g>
</svg>
