<?xml version="1.0" encoding="utf-8"?>
<!-- Generator: Adobe Illustrator 27.0.0, SVG Export Plug-In . SVG Version: 6.00 Build 0)  -->
<svg version="1.1" id="Layer_1" xmlns="http://www.w3.org/2000/svg" xmlns:xlink="http://www.w3.org/1999/xlink" x="0px" y="0px"
	 viewBox="0 0 32 46.1" style="enable-background:new 0 0 32 46.1;" xml:space="preserve">
<style type="text/css">
	.st0{fill:#FFFFFF;}
</style>
<g>
	<path class="st0" d="M15.4,4.4c0.5,0,1,0,1.5,0c3.7,3.1,8.1,4.5,12.8,4.9c2.2,0.2,2.3,0.2,2.3,2.5c0,3.2,0,6.4,0,9.6
		c0,1.8,0.2,3.7-0.2,5.5c-1.5,7.1-6.2,11.5-12.7,14.2c-1.9,0.8-3.9,0.7-5.8,0c-2.7-1-5-2.5-7.1-4.5c-2.9-2.9-5.4-6.1-5.6-10.4
		c-0.3-5-0.1-10.1-0.1-15.1c0-1.1,0.5-1.5,1.6-1.6c2.1-0.3,4.2-0.4,6.1-1.2C10.7,7.4,13,5.8,15.4,4.4z M14.7,20.2c0,1.4,0,2.8,0,4.2
		c0,1.1,0.5,1.8,1.6,1.8c1,0,1.6-0.7,1.6-1.7c0-2.9,0-5.7,0-8.6c0-1-0.6-1.7-1.6-1.7c-1.1,0-1.6,0.7-1.6,1.7
		C14.7,17.4,14.7,18.8,14.7,20.2z M14.7,30.8c-0.1,1,0.3,2,1.5,2.1c1,0.1,1.7-0.8,1.7-2.2c0-1.4-0.6-2.3-1.6-2.3
		C15.3,28.4,14.7,29.2,14.7,30.8z"/>
</g>
</svg>
