<?xml version="1.0" encoding="utf-8"?>
<!-- Generator: Adobe Illustrator 27.0.0, SVG Export Plug-In . SVG Version: 6.00 Build 0)  -->
<svg version="1.1" id="Layer_1" xmlns="http://www.w3.org/2000/svg" xmlns:xlink="http://www.w3.org/1999/xlink" x="0px" y="0px"
	 viewBox="0 0 46 55.2" style="enable-background:new 0 0 46 55.2;" xml:space="preserve">
<style type="text/css">
	.st0{fill:#212121;}
</style>
<g>
	<path class="st0" d="M21.8,0.9c0.7,0,1.4,0,2.1,0c5.3,4.4,11.5,6.5,18.3,7c3.2,0.2,3.4,0.3,3.4,3.5c0,4.6,0,9.2,0,13.8
		c0,2.6,0.3,5.4-0.3,7.9c-2.1,10.2-8.8,16.5-18.1,20.4c-2.7,1.1-5.5,1-8.3,0c-3.9-1.4-7.2-3.6-10.1-6.4c-4.2-4.1-7.8-8.8-8.1-14.9
		C0.2,25,0.5,17.7,0.5,10.5c0-1.5,0.8-2.1,2.3-2.3c2.9-0.4,6-0.6,8.7-1.7C15.1,5.1,18.4,2.8,21.8,0.9z M20.9,23.5c0,2,0,4,0,6
		c0,1.6,0.7,2.6,2.3,2.6c1.5,0,2.3-1,2.3-2.4c0-4.1,0.1-8.2,0-12.3c0-1.4-0.8-2.4-2.3-2.4c-1.5,0-2.2,1-2.2,2.4
		C20.8,19.5,20.9,21.5,20.9,23.5z M20.8,38.7c-0.1,1.5,0.4,2.8,2.2,3c1.5,0.2,2.4-1.1,2.5-3.2c0-2.1-0.9-3.3-2.4-3.3
		C21.6,35.3,20.8,36.4,20.8,38.7z"/>
</g>
</svg>
