<?xml version="1.0" encoding="utf-8"?>
<!-- Generator: Adobe Illustrator 27.0.0, SVG Export Plug-In . SVG Version: 6.00 Build 0)  -->
<svg version="1.1" id="Layer_1" xmlns="http://www.w3.org/2000/svg" xmlns:xlink="http://www.w3.org/1999/xlink" x="0px" y="0px"
	 viewBox="0 0 51 95" style="enable-background:new 0 0 51 95;" xml:space="preserve">
<style type="text/css">
	.st0{fill:#008285;}
	.st1{fill:#FFFFFF;}
	.st2{fill:#FFFFFF;stroke:#008285;stroke-width:2;stroke-miterlimit:10;}
	.st3{fill:#008285;stroke:#FFFFFF;stroke-width:2;stroke-miterlimit:10;}
</style>
<path class="st0" d="M34.1,43.6c0-0.1,0-0.2,0-0.3c0-0.2,0-0.4,0-0.7c-2.1-1.5-3.4-4-3.4-6.7c0-1.7,0.6-3.3,1.5-4.6
	c0.2-0.8,0.3-1.7,0.5-2.6c-1.5,1.2-1.6,1.2-3.4,0.2c-0.2-0.1-0.4-0.2-0.7-0.4c-1,3.2-2,6.4-3,9.6c-0.6-1.5-1-2.9-1.5-4.4
	c-0.3-0.8-0.3-1.4,0.4-2.1c0.3-0.3,0.4-1.1,0.3-1.5c-0.1-0.3-0.8-0.6-1.2-0.7c-0.5-0.1-1.1-0.1-1.6,0c-0.5,0.1-1.3,0.4-1.5,0.8
	c-0.2,0.4,0.2,1.1,0.4,1.6c0.1,0.3,0.5,0.7,0.5,0.9c-0.5,1.8-1,3.6-1.6,5.6c-1.2-3.5-2.3-6.7-3.3-9.7c-1.7,0.6-3.3,1.1-4.9,1.6
	c-1.5,0.4-3,0.8-4.6,1.2c-2.8,0.7-4.5,2.5-5.1,5.3c-0.3,1.5-0.5,2.9-0.8,4.4v1c0.5,1.3,1.6,1.7,2.9,1.7c9.5,0,19,0,28.5,0
	c0.4,0,0.9,0.1,1.3,0.3C33.8,44,34,43.8,34.1,43.6z"/>
<path class="st0" d="M31.6,10.6c0,0.5,0,1,0,1.5c0,0.6,0,1.1,0.6,1.7c0.4,0.4,0.4,1.4,0.3,2.1c-0.2,0.8-0.7,1.6-1.1,2.4
	c-1.2,1.9-2.3,3.8-3.7,5.5c-2.7,3.3-7.2,3.4-9.9,0.1c-1.8-2.2-3.3-4.8-4.8-7.2c-0.7-1.1-0.7-2.6,0.6-3.4c0.2-0.1,0.3-0.5,0.3-0.8
	c0-1.2-0.1-2.5,0-3.7c0-3.3,1.6-5.8,4.7-7c3.2-1.3,6.4-1.1,9.4,0.4c2.6,1.3,3.8,3.6,3.9,6.5C31.7,9.4,31.7,10,31.6,10.6
	C31.6,10.6,31.6,10.6,31.6,10.6z M15.5,14c-2,0.2-2.5,0.8-1.6,2.3c1.3,2.3,2.7,4.6,4.3,6.6c2.5,3.1,6.2,3.1,8.8,0
	c1.3-1.5,2.2-3.3,3.3-5c0.4-0.7,0.9-1.5,1.2-2.3c0.3-0.9,0.1-1.2-0.9-1.3c-0.3,0-0.6-0.1-0.9-0.1c0.2-1.1,0.4-2,0.6-3.1
	c-0.4,0-0.8-0.1-1.1-0.1c-3.7-0.1-7-1.2-9.8-3.6c-0.7-0.6-1.4-0.5-2.2-0.1c-1.2,0.5-2.5,2.6-2,4C15.3,12.2,15.3,13.1,15.5,14z"/>
<path class="st1" d="M33.6,93.2c0,0,0-0.1,0-0.1c0-0.1,0.1-0.6,0.1-1.1c-1.9-1.5-3.1-3.9-3.1-6.5c0-1.9,0.7-3.7,1.8-5.1
	c-0.3-0.5-0.5-1.1-0.6-1.6c-0.9,0.6-1.2,0.5-2.7-0.3c-0.2-0.1-0.4-0.2-0.7-0.4c-1,3.2-2,6.4-3,9.6c-0.6-1.5-1-2.9-1.5-4.4
	c-0.3-0.8-0.3-1.4,0.4-2.1c0.3-0.3,0.4-1.1,0.3-1.5c-0.1-0.3-0.8-0.6-1.2-0.7c-0.5-0.1-1.1-0.1-1.6,0c-0.5,0.1-1.3,0.4-1.5,0.8
	c-0.2,0.4,0.2,1.1,0.4,1.6c0.1,0.3,0.5,0.7,0.5,0.9c-0.5,1.8-1,3.6-1.6,5.6c-1.2-3.5-2.3-6.7-3.3-9.7c-1.7,0.6-3.3,1.1-4.9,1.6
	c-1.5,0.4-3,0.8-4.6,1.2c-2.8,0.7-4.5,2.5-5.1,5.3c-0.3,1.5-0.5,2.9-0.8,4.4v1c0.5,1.3,1.6,1.7,2.9,1.7c9.5,0,19,0,28.5,0
	c0.3,0,0.6,0.1,1,0.2C33.4,93.6,33.5,93.4,33.6,93.2z"/>
<path class="st1" d="M31.6,60.3c0,0.5,0,1,0,1.5c0,0.6,0,1.1,0.6,1.7c0.4,0.4,0.4,1.4,0.3,2.1c-0.2,0.8-0.7,1.6-1.1,2.4
	c-1.2,1.9-2.3,3.8-3.7,5.5c-2.7,3.3-7.2,3.4-9.9,0.1c-1.8-2.2-3.3-4.8-4.8-7.2c-0.7-1.1-0.7-2.6,0.6-3.4c0.2-0.1,0.3-0.5,0.3-0.8
	c0-1.2-0.1-2.5,0-3.7c0-3.3,1.6-5.8,4.7-7c3.2-1.3,6.4-1.1,9.4,0.4c2.6,1.3,3.8,3.6,3.9,6.5C31.7,59.1,31.7,59.7,31.6,60.3
	C31.6,60.3,31.6,60.3,31.6,60.3z M15.5,63.7c-2,0.2-2.5,0.8-1.6,2.3c1.3,2.3,2.7,4.6,4.3,6.6c2.5,3.1,6.2,3.1,8.8,0
	c1.3-1.5,2.2-3.3,3.3-5c0.4-0.7,0.9-1.5,1.2-2.3c0.3-0.9,0.1-1.2-0.9-1.3c-0.3,0-0.6-0.1-0.9-0.1c0.2-1.1,0.4-2,0.6-3.1
	c-0.4,0-0.8-0.1-1.1-0.1c-3.7-0.1-7-1.2-9.8-3.6c-0.7-0.6-1.4-0.5-2.2-0.1c-1.2,0.5-2.5,2.6-2,4C15.3,61.8,15.3,62.7,15.5,63.7z"/>
<circle class="st2" cx="36.7" cy="30" r="13.3"/>
<rect x="36.3" y="20.2" transform="matrix(0.7071 0.7071 -0.7071 0.7071 32.2886 -17.2562)" class="st0" width="1.4" height="20.3"/>
<rect x="36.3" y="20.2" transform="matrix(-0.7071 0.7071 -0.7071 -0.7071 84.5783 25.662)" class="st0" width="1.4" height="20.3"/>
<circle class="st3" cx="36.7" cy="79.6" r="13.3"/>
<rect x="36.3" y="69.9" transform="matrix(0.7071 0.7071 -0.7071 0.7071 67.4075 -2.7095)" class="st1" width="1.4" height="20.3"/>
<rect x="36.3" y="69.9" transform="matrix(-0.7071 0.7071 -0.7071 -0.7071 119.6972 110.4464)" class="st1" width="1.4" height="20.3"/>
</svg>
